<?xml version="1.0" encoding="UTF-8"?>
<svg xmlns="http://www.w3.org/2000/svg" width="741" height="886" viewBox="0 0 741 886" fill="none">
  <g clip-path="url(#clip0_2_15727)">
    <path d="M60.4799 398.58L59.25 398.21L58.95 397.59L51.5099 378.6L48.2999 368.83C48.04 368.64 47.86 368.6 47.82 368.6L29.6399 369.14C28.5999 369.14 27.5499 368.62 26.65 367.6C25.5 366.29 24.91 364.54 25.1399 363.13L28.42 342.94L7.02995 320.44L2.98995 317.73L2.94995 316.91C2.95995 316.43 3.21995 315.99 3.62995 315.73L14.59 309.12L14.78 309.25C15.18 309.19 15.68 309.24 16.24 309.47L34.77 317.06L35.7299 307.63L36.33 307.21C46.55 301.02 46.56 301.01 46.58 301L46.77 300.91C47.2799 300.61 48.0799 300.58 48.8899 300.88C50.22 301.38 51.43 302.76 51.99 304.39L61.08 330.91C61.31 331.6 61.7799 332.26 62.2799 332.63L82.61 347.78C84.12 348.9 85.12 350.97 85 352.71C84.93 353.74 84.46 354.55 83.67 354.98L73.21 361.13L72.49 361.12L68.97 363.05C69 363.05 68.94 363.23 69 363.62L72.47 389C72.71 390.72 71.9799 391.59 71.52 391.96L60.4799 398.58Z" fill="#15100C"></path>
    <path d="M82.61 347.79L62.2799 332.64C61.7799 332.26 61.31 331.6 61.08 330.92L51.99 304.4C51.43 302.77 50.2099 301.4 48.8899 300.89C48.0799 300.58 47.28 300.62 46.77 300.92L46.58 301.01C46.56 301.02 46.55 301.03 36.33 307.22L35.7299 307.64L34.77 317.07L16.24 309.48C15.68 309.25 15.18 309.21 14.78 309.26L3.62995 315.73C3.21995 315.98 2.95995 316.42 2.94995 316.91L2.98995 317.72L7.02995 320.43L28.41 342.92L25.1299 363.11C24.8999 364.51 25.4999 366.27 26.6399 367.58C27.5399 368.61 28.5899 369.12 29.6299 369.12L47.81 368.58C47.85 368.58 48.03 368.62 48.29 368.81L51.5 378.58L58.9399 397.57L59.24 398.19L60.47 398.56L71.51 391.94C71.97 391.57 72.7 390.71 72.46 388.98L68.99 363.6C68.94 363.21 69 363.02 68.96 363.03L72.48 361.1L73.2 361.11L83.66 354.96C84.44 354.53 84.91 353.73 84.99 352.69C85.12 350.99 84.11 348.91 82.61 347.79Z" stroke="#15100C" stroke-width="1.5" stroke-miterlimit="10"></path>
    <path d="M61.01 397.37L71.13 390.29L67.71 363L57.76 368.27L57.13 370.15L61.13 395.46L61.01 397.37Z" fill="#15100C"></path>
    <path d="M60.31 392.02L60.02 389.88L71.63 382.92L71.92 385.06L60.31 392.02Z" fill="white"></path>
    <path d="M57.7457 324.951L47.1604 331.294L48.1833 333.001L58.7685 326.658L57.7457 324.951Z" fill="white"></path>
    <path d="M72.03 354.14L51.7 338.99C51.2 338.61 50.73 337.95 50.5 337.26L41.41 310.74C40.72 308.74 39.07 307.17 37.48 307.03C36.5 306.94 35.62 307.4 35.13 308.25L26 324.15L5.67 315.82C4.52 315.35 3.41 315.57 2.7 316.39C1.73 317.51 1.79 319.48 2.85 321.29L17.56 346.34C18 347.08 18.09 347.74 18.03 348.09L14.56 369.46C14.33 370.87 14.92 372.62 16.07 373.93C16.97 374.95 18.04 375.47 19.06 375.47L37.24 374.93C37.37 374.93 37.79 375.11 38.25 375.65L56.43 397.19C57.33 398.26 58.41 398.83 59.41 398.83C59.76 398.83 60.1 398.76 60.42 398.62C61.55 398.12 62.09 396.9 61.88 395.35L58.41 369.97L73.09 361.33C73.87 360.9 74.35 360.09 74.42 359.06C74.54 357.33 73.54 355.26 72.03 354.14Z" fill="white"></path>
    <path d="M72.03 354.14L51.7 338.99C51.2 338.61 50.73 337.95 50.5 337.26L41.41 310.74C40.72 308.74 39.07 307.17 37.48 307.03C36.5 306.94 35.62 307.4 35.13 308.25L26 324.15L5.67 315.82C4.52 315.35 3.41 315.57 2.7 316.39C1.73 317.51 1.79 319.48 2.85 321.29L17.56 346.34C18 347.08 18.09 347.74 18.03 348.09L14.56 369.46C14.33 370.87 14.92 372.62 16.07 373.93C16.97 374.95 18.04 375.47 19.06 375.47L37.24 374.93C37.37 374.93 37.79 375.11 38.25 375.65L56.43 397.19C57.33 398.26 58.41 398.83 59.41 398.83C59.76 398.83 60.1 398.76 60.42 398.62C61.55 398.12 62.09 396.9 61.88 395.35L58.41 369.97L73.09 361.33C73.87 360.9 74.35 360.09 74.42 359.06C74.54 357.33 73.54 355.26 72.03 354.14Z" stroke="#15100C" stroke-width="1.5" stroke-miterlimit="10"></path>
    <path d="M16.24 309.48C15.68 309.25 15.18 309.21 14.78 309.26L3.63 315.73" stroke="#15100C" stroke-width="1.5" stroke-miterlimit="10"></path>
    <path d="M72.03 354.14L51.7 338.99C51.2 338.61 50.73 337.95 50.5 337.26L41.41 310.74C40.72 308.74 39.07 307.17 37.48 307.03C36.5 306.94 35.62 307.4 35.13 308.25L26 324.15L5.67 315.82C4.52 315.35 3.41 315.57 2.7 316.39C1.73 317.51 1.79 319.48 2.85 321.29L17.56 346.34C18 347.08 18.09 347.74 18.03 348.09L14.56 369.46C14.33 370.87 14.92 372.62 16.07 373.93C16.97 374.95 18.04 375.47 19.06 375.47L37.24 374.93C37.37 374.93 37.79 375.11 38.25 375.65L56.43 397.19C57.33 398.26 58.41 398.83 59.41 398.83C59.76 398.83 60.1 398.76 60.42 398.62C61.55 398.12 62.09 396.9 61.88 395.35L58.41 369.97L73.09 361.33C73.87 360.9 74.35 360.09 74.42 359.06C74.54 357.33 73.54 355.26 72.03 354.14Z" stroke="#15100C" stroke-width="1.5" stroke-miterlimit="10"></path>
    <path d="M38.05 347.59C39.99 348.71 41.54 350.23 42.69 352.16C43.84 354.08 44.41 356.14 44.41 358.33C44.41 360.92 43.72 362.51 42.34 363.11C40.96 363.71 38.98 363.26 36.41 361.78C34.18 360.49 32.37 359.03 31 357.4V353.16C31.72 354.02 32.57 354.87 33.53 355.71C34.49 356.55 35.4 357.21 36.26 357.71C38.85 359.21 40.15 358.73 40.15 356.27C40.15 353.93 38.81 351.99 36.13 350.44C35.64 350.16 35.11 349.91 34.52 349.68C33.93 349.45 33.46 349.3 33.09 349.21L31.4 347.19L32.16 335.81L43.05 342.1V346.26L35.88 342.12L35.51 346.46L35.99 346.63C36.54 346.79 37.23 347.11 38.05 347.59Z" fill="#15100C"></path>
    <path d="M85 352.72C85.06 351.92 84.86 351.05 84.5 350.23C84.42 350.04 84.32 349.86 84.22 349.68C84.13 349.52 84.04 349.37 83.94 349.22C83.57 348.67 83.12 348.18 82.61 347.8L62.28 332.65C62.15 332.56 62.03 332.44 61.91 332.32C61.56 331.94 61.25 331.44 61.08 330.93L59.48 326.26L51.99 304.41C51.81 303.89 51.56 303.41 51.27 302.96C50.99 302.53 50.67 302.14 50.31 301.81L50.3 301.8C49.86 301.4 49.38 301.09 48.88 300.9C48.74 300.85 48.6 300.82 48.46 300.78C47.8 300.62 47.18 300.68 46.77 300.93L35.69 306.17C34.87 306.78 34.29 307.32 34 307.83L29.83 315.08L16.24 309.49C15.96 309.37 15.69 309.31 15.45 309.27C15.33 309.25 15.21 309.25 15.1 309.25C14.99 309.25 14.88 309.26 14.78 309.27L14.19 309.61L3.75 315.59C3.31 315.92 2.95 316.1 2.69 316.4C1.72 317.52 1.78 319.49 2.84 321.3L17.55 346.35C17.99 347.09 18.08 347.75 18.02 348.1L14.55 369.47C14.32 370.88 14.91 372.63 16.06 373.94C16.96 374.96 18.03 375.48 19.05 375.48L37.23 374.94C37.36 374.94 37.78 375.12 38.24 375.66L56.42 397.2C57.32 398.27 58.4 398.84 59.4 398.84C59.75 398.84 60.09 398.77 60.41 398.63C60.61 398.54 60.78 398.43 60.94 398.3L71.5 391.97C71.79 391.74 72.18 391.32 72.37 390.61C72.49 390.19 72.54 389.66 72.45 389.01L69.85 369.99L69.2 365.2L84.19 354.6C84.67 354.14 84.95 353.49 85 352.72Z" stroke="#15100C" stroke-width="4" stroke-miterlimit="10"></path>
    <path d="M639.22 578.06L633.71 547.48C652.71 544.02 706.95 527.85 706.95 499.94C706.95 490.27 703.56 487.8 702.45 486.99C695.17 481.7 677.26 483.89 667.44 487.07L657.77 457.54C661.78 456.21 697.61 445.13 720.65 461.8C728.58 467.54 738.03 478.82 738.03 499.94C738.02 558.6 649.34 576.24 639.22 578.06Z" fill="#15100C"></path>
    <path d="M637.19 580.98L630.78 545.45L633.25 545C656.48 540.77 704.43 524.2 704.43 499.94C704.43 494.37 703.26 490.7 700.97 489.03C694.74 484.51 677.65 486.42 668.22 489.47L665.83 490.24L654.6 455.94L656.98 455.15C661.1 453.78 697.98 442.29 722.13 459.76C730.53 465.84 740.55 477.74 740.55 499.94C740.55 560.61 650 578.67 639.68 580.54L637.19 580.98ZM636.63 549.48L641.25 575.11C658.47 571.66 735.5 553.23 735.5 499.94C735.5 479.87 726.62 469.23 719.17 463.85C699.53 449.64 670.03 456.57 660.96 459.2L669.07 483.96C679.89 480.97 696.41 479.49 703.93 484.96C705.3 485.95 709.47 488.98 709.47 499.94C709.47 528.62 659.07 544.9 636.63 549.48Z" fill="#15100C"></path>
    <path d="M680.87 425.26H563.19H445.59C445.59 425.26 444.16 490.25 464.02 527.37C481.83 560.66 486.54 593.95 487.32 600.48C487.35 600.82 487.4 601.17 487.44 601.51C487.45 601.58 487.46 601.72 487.46 601.72H487.47C488.84 612.59 497.16 623.21 512.34 631.12C543.51 647.37 591.55 646.06 619.64 628.19C631.58 620.6 637.93 611.23 638.96 601.72H638.97C638.97 601.72 638.98 601.59 638.99 601.54C639.02 601.24 639.07 600.95 639.09 600.66C639.81 594.58 644.44 560.98 662.43 527.37C682.29 490.25 680.87 425.26 680.87 425.26Z" fill="white"></path>
    <path d="M682.4 425.55H564.72H547.9L620.37 459.84C620.37 459.84 621.8 524.83 601.93 561.95C583.94 595.56 579.31 629.16 578.59 635.24C578.57 635.53 578.52 635.83 578.49 636.12C578.48 636.17 578.47 636.3 578.47 636.3H578.46C578.24 638.28 577.74 640.26 577.06 642.21C593.49 640.7 609.15 636.11 621.16 628.47C633.1 620.87 639.45 611.51 640.48 602H640.49C640.49 602 640.5 601.87 640.51 601.82C640.54 601.52 640.59 601.23 640.61 600.94C641.33 594.86 645.96 561.26 663.95 527.65C683.83 490.55 682.4 425.55 682.4 425.55Z" fill="#15100C"></path>
    <path d="M650.64 470.84C607.13 498.52 532.71 500.56 484.41 475.39C436.11 450.22 432.23 407.37 475.74 379.68C519.25 352 593.67 349.96 641.97 375.13C690.27 400.3 694.15 443.15 650.64 470.84Z" fill="white"></path>
    <path d="M650.64 470.84C607.13 498.52 532.71 500.56 484.41 475.39C436.11 450.22 432.23 407.37 475.74 379.68C519.25 352 593.67 349.96 641.97 375.13C690.27 400.3 694.15 443.15 650.64 470.84Z" stroke="#15100C" stroke-width="2" stroke-miterlimit="10"></path>
    <path d="M683.39 425.2L683.36 423.95L683.28 422.73C681.97 403.4 667.78 385.73 643.13 372.89C594.2 347.38 518.5 349.47 474.39 377.54C453.36 390.92 442.22 408.38 443.01 426.71C443.02 426.85 443.04 426.98 443.05 427.12C442.97 438.31 443.53 494.39 461.8 528.55C479.39 561.44 484.07 594.49 484.81 600.66L485.21 604.24H485.34C487.66 615.56 496.75 625.83 511.18 633.35C526.1 641.13 544.83 644.96 563.49 644.96C584.66 644.96 605.73 640.02 620.99 630.31C633.21 622.53 640.29 612.74 641.53 601.49L641.59 600.94C642.33 594.66 646.94 561.64 664.65 528.55C684.6 491.28 683.44 427.88 683.39 425.2Z" stroke="#15100C" stroke-width="4" stroke-miterlimit="10"></path>
    <path d="M563.56 481.98C540.51 481.98 517.36 477.24 498.93 467.64C478.67 457.08 467.13 442.45 466.44 426.45C465.8 411.59 474.81 397.44 491.81 386.63C527.28 364.07 588.12 362.38 627.46 382.88C647.72 393.44 659.26 408.07 659.96 424.07C660.6 438.93 651.59 453.08 634.59 463.89C615.73 475.88 589.71 481.98 563.56 481.98ZM562.77 373.5C537.62 373.5 512.61 379.35 494.51 390.88C479.1 400.69 470.92 413.24 471.47 426.24C472.08 440.36 482.66 453.48 501.26 463.18C539.17 482.93 597.76 481.35 631.87 459.65C647.28 449.84 655.46 437.29 654.9 424.29C654.29 410.17 643.71 397.05 625.11 387.35C607.34 378.07 584.99 373.5 562.77 373.5Z" fill="#15100C"></path>
    <path d="M633.23 461.76C598.38 483.93 538.78 485.56 500.1 465.4C461.42 445.24 458.31 410.92 493.16 388.75C528.01 366.58 587.61 364.95 626.29 385.11C664.97 405.27 668.07 439.59 633.23 461.76Z" fill="#15100C"></path>
    <path d="M652.71 444.15C647.05 435.98 638.56 428.9 627.47 423.12C588.14 402.63 527.29 404.3 491.82 426.87C484.17 431.75 478.06 437.42 473.67 443.73L472.68 445.16L473.67 446.6C479.33 454.78 487.83 461.85 498.92 467.63C517.35 477.24 540.5 481.97 563.55 481.97C589.69 481.97 615.72 475.87 634.57 463.88C642.22 459.01 648.32 453.34 652.72 447.02L653.71 445.59L652.71 444.15Z" fill="#2961D5"></path>
    <path d="M596.01 466.83C579.31 466.83 566.23 459.31 566.23 449.71C566.23 440.11 579.31 432.59 596.01 432.59C612.7 432.59 625.78 440.11 625.78 449.71C625.78 459.31 612.7 466.83 596.01 466.83Z" fill="white"></path>
    <path d="M552.98 471.77C543.09 471.77 535.63 467.26 535.63 461.29C535.63 455.32 543.09 450.81 552.98 450.81C562.87 450.81 570.33 455.31 570.33 461.29C570.33 467.26 562.88 471.77 552.98 471.77Z" fill="white"></path>
    <path d="M537.74 440.49C527.85 440.49 520.39 435.98 520.39 430.01C520.39 424.04 527.85 419.53 537.74 419.53C547.63 419.53 555.09 424.03 555.09 430.01C555.09 435.98 547.64 440.49 537.74 440.49Z" fill="white"></path>
    <path d="M596.01 434.59C611.32 434.59 623.78 441.37 623.78 449.71C623.78 458.05 611.32 464.83 596.01 464.83C580.69 464.83 568.23 458.05 568.23 449.71C568.23 441.37 580.69 434.59 596.01 434.59ZM596.01 432.59C579.31 432.59 566.23 440.11 566.23 449.71C566.23 459.31 579.31 466.83 596.01 466.83C612.7 466.83 625.78 459.31 625.78 449.71C625.78 440.11 612.7 432.59 596.01 432.59Z" fill="#15100C"></path>
    <path d="M552.98 452.81C561.59 452.81 568.33 456.53 568.33 461.29C568.33 466.05 561.59 469.77 552.98 469.77C544.37 469.77 537.63 466.05 537.63 461.29C537.63 456.53 544.37 452.81 552.98 452.81ZM552.98 450.81C543.09 450.81 535.63 455.31 535.63 461.29C535.63 467.26 543.09 471.77 552.98 471.77C562.87 471.77 570.33 467.26 570.33 461.29C570.33 455.31 562.88 450.81 552.98 450.81Z" fill="#15100C"></path>
    <path d="M537.74 421.53C546.35 421.53 553.09 425.25 553.09 430.01C553.09 434.77 546.35 438.49 537.74 438.49C529.13 438.49 522.39 434.77 522.39 430.01C522.39 425.26 529.14 421.53 537.74 421.53ZM537.74 419.53C527.85 419.53 520.39 424.03 520.39 430.01C520.39 435.98 527.85 440.49 537.74 440.49C547.63 440.49 555.09 435.98 555.09 430.01C555.09 424.04 547.64 419.53 537.74 419.53Z" fill="#15100C"></path>
    <path d="M534.12 502.28C534.45 502.34 568 508.62 605.9 500.49" stroke="#15100C" stroke-width="2" stroke-miterlimit="10"></path>
    <path d="M499.87 493.18C500.01 493.24 513.51 499.49 523.49 500.84" stroke="#15100C" stroke-width="2" stroke-miterlimit="10"></path>
    <path d="M563.61 372.7C587.58 372.7 610.57 377.8 628.35 387.07C647.79 397.2 658.84 410.95 659.48 425.78C660.07 439.44 651.51 452.62 635.38 462.88C617.35 474.35 591.5 480.93 564.45 480.93C540.48 480.93 517.49 475.83 499.71 466.56C480.27 456.43 469.22 442.68 468.58 427.85C467.99 414.19 476.55 401.02 492.68 390.75C510.7 379.28 536.56 372.7 563.61 372.7ZM563.61 370.7C537.11 370.7 510.74 376.89 491.61 389.06C455.58 411.99 458.79 447.48 498.79 468.33C517.55 478.11 541.06 482.93 564.46 482.93C590.96 482.93 617.33 476.74 636.46 464.57C672.49 441.64 669.28 406.15 629.28 385.3C610.52 375.52 587.01 370.69 563.61 370.7Z" fill="#15100C"></path>
    <path d="M474.53 124.39L267.72 6.25003C246.47 -5.88997 220.02 9.46003 220.02 33.93V563.76C220.02 580.99 229.25 596.89 244.21 605.44L451.03 723.58C472.28 735.72 498.73 720.37 498.73 695.9V166.07C498.72 148.84 489.49 132.93 474.53 124.39Z" fill="white"></path>
    <path d="M474.53 124.39L267.72 6.25003C246.47 -5.88997 220.02 9.46003 220.02 33.93V563.76C220.02 580.99 229.25 596.89 244.21 605.44L451.03 723.58C472.28 735.72 498.73 720.37 498.73 695.9V166.07C498.72 148.84 489.49 132.93 474.53 124.39Z" stroke="#15100C" stroke-width="4" stroke-miterlimit="10"></path>
    <path d="M445.33 164.71L254.13 58.1001C246.08 53.5001 236.06 59.3101 236.06 68.5901V563.09C236.06 569.62 239.56 575.64 245.22 578.88L436.42 685.49C444.47 690.09 454.49 684.28 454.49 675V180.5C454.49 173.97 451 167.95 445.33 164.71Z" fill="#2961D5"></path>
    <path d="M445.33 164.71L254.13 58.1001C246.08 53.5001 236.06 59.3101 236.06 68.5901V563.09C236.06 569.62 239.56 575.64 245.22 578.88L436.42 685.49C444.47 690.09 454.49 684.28 454.49 675V180.5C454.49 173.97 451 167.95 445.33 164.71Z" stroke="#15100C" stroke-width="2" stroke-miterlimit="10"></path>
    <path d="M446.39 721.54C458.27 728.33 473.06 719.75 473.06 706.06V161.93C473.06 152.3 467.9 143.41 459.54 138.63L246.69 16.51C234.81 9.72001 220.02 18.3 220.02 31.99" stroke="#15100C" stroke-width="2" stroke-miterlimit="10"></path>
    <path d="M480.02 167.12V705C480.02 705 479.31 729.83 451.03 723.58C472.28 735.72 498.73 720.37 498.73 695.9V166.07C498.73 148.84 489.5 132.94 474.54 124.39C474.53 124.39 494.91 139.28 480.02 167.12Z" fill="#15100C"></path>
    <path d="M494.02 266.19L492.93 240.22H489.65V240.24C488.89 240.25 488.14 240.46 487.45 240.88C484.67 242.59 482.94 245.67 482.94 248.93V308.46C482.94 310.04 483.77 311.45 485.15 312.23C485.75 312.56 486.4 312.73 487.05 312.76V312.8H490.52L492.85 308.64C493.61 307.26 494.03 305.7 494.03 304.09V266.19H494.02Z" fill="white"></path>
    <path d="M491.35 241.99C488.94 243.47 487.46 246.1 487.46 248.93V308.46C487.46 310.82 490.04 312.27 492.06 311.03C494.47 309.55 495.95 306.92 495.95 304.09V244.56C495.95 242.21 493.36 240.76 491.35 241.99Z" fill="white"></path>
    <path d="M491.35 241.99C488.94 243.47 487.46 246.1 487.46 248.93V308.46C487.46 310.82 490.04 312.27 492.06 311.03C494.47 309.55 495.95 306.92 495.95 304.09V244.56C495.95 242.21 493.36 240.76 491.35 241.99Z" stroke="#15100C" stroke-width="2" stroke-miterlimit="10"></path>
    <path d="M370.68 103.22L327.76 78.52C326.07 77.55 323.96 78.77 323.96 80.72C323.96 83.48 325.44 86.04 327.83 87.42L370.75 112.12C372.44 113.09 374.55 111.87 374.55 109.92C374.55 107.15 373.08 104.59 370.68 103.22Z" stroke="#15100C" stroke-width="2" stroke-miterlimit="10"></path>
    <path d="M319.017 80.993C320.554 80.6305 321.367 78.4977 320.832 76.2293C320.297 73.9609 318.617 72.4158 317.08 72.7783C315.542 73.1408 314.73 75.2736 315.264 77.542C315.799 79.8104 317.479 81.3555 319.017 80.993Z" stroke="#15100C" stroke-width="2" stroke-miterlimit="10"></path>
    <path d="M133.49 191.54L155.39 178.61C155.58 178.49 155.77 178.38 155.97 178.27L156.32 178.11C164.06 173.98 174.56 174.72 186.15 181.42C209.93 195.15 229.21 228.54 229.21 256C229.21 268.73 225.03 277.89 218.22 282.75L217.45 283.28C216.94 283.61 216.43 283.92 215.9 284.2L195.5 296.32L183.94 277.03C164.33 263.52 148.61 237.06 145.63 213.08L144.11 210.54L133.49 191.54Z" fill="#15100C"></path>
    <path d="M186.64 181.03C208.32 193.55 226.2 222.39 229.21 248.19C229.02 260.46 224.91 269.34 218.25 274.08L217.48 274.61C216.97 274.94 216.46 275.25 215.93 275.53L195.53 287.65L183.97 268.36C164.36 254.85 148.64 228.39 145.66 204.41L144.14 201.87L137.11 189.3L155.87 178.22C156.06 178.1 156.25 177.99 156.45 177.88L156.8 177.72C164.55 173.59 175.05 174.33 186.64 181.03Z" fill="white"></path>
    <path d="M183.08 277.83C163.44 264.19 147.63 237.79 144.52 213.46L131.94 191.12L154.88 177.57L155.77 177.08C164.21 172.57 175.21 173.75 186.73 180.4C210.79 194.29 230.37 228.2 230.37 255.98C230.37 268.56 226.29 278.4 218.88 283.69L218.08 284.24C217.55 284.58 217 284.91 216.49 285.18L195.1 297.9L183.08 277.83Z" stroke="#15100C" stroke-width="2" stroke-miterlimit="10"></path>
    <path d="M194.093 296.575C210.909 286.866 210.911 255.387 194.096 226.264C177.282 197.142 150.019 181.404 133.203 191.114C116.387 200.823 116.385 232.302 133.199 261.424C150.014 290.547 177.277 306.284 194.093 296.575Z" fill="white"></path>
    <path d="M163.07 294.57C139.01 280.68 119.43 246.77 119.43 218.99C119.43 205.28 124.11 195.02 132.62 190.11C141.13 185.2 152.36 186.27 164.23 193.13C188.29 207.02 207.87 240.93 207.87 268.71C207.87 282.42 203.19 292.68 194.68 297.59C191.16 299.62 187.18 300.63 182.88 300.63C176.78 300.62 170.04 298.59 163.07 294.57Z" stroke="#15100C" stroke-width="2" stroke-miterlimit="10"></path>
    <path d="M186.73 180.4C175.21 173.75 164.21 172.57 155.77 177.08L154.88 177.57L136.73 188.29C135.31 188.76 133.94 189.36 132.64 190.11C124.13 195.02 119.45 205.28 119.45 218.99C119.45 246.77 139.02 280.68 163.09 294.57C170.06 298.59 176.8 300.63 182.9 300.63C187.2 300.63 191.18 299.62 194.7 297.59C194.76 297.56 194.81 297.52 194.87 297.48L195.42 297.15L216.51 285.19C217.02 284.92 217.56 284.59 218.1 284.25L218.9 283.7C226.31 278.41 230.39 268.57 230.39 255.99C230.36 228.2 210.79 194.3 186.73 180.4Z" stroke="#15100C" stroke-width="4" stroke-miterlimit="10"></path>
    <path d="M160.96 216.84L155.37 226.7L142.86 221.58C140.39 220.57 139.41 223.5 141.19 226.54L150.24 241.96L148.1 255.11C147.68 257.7 150.26 261.35 152.46 261.29L163.65 260.96L174.84 274.21C177.04 276.82 179.62 276.15 179.2 273.07L177.06 257.45L186.11 252.49C187.89 251.51 186.91 247.45 184.44 245.61L171.93 236.29L166.34 219.97C165.24 216.73 162.06 214.89 160.96 216.84Z" fill="#FA005A"></path>
    <path d="M173.95 274.94L163.12 262.11L152.49 262.43C151.26 262.41 149.99 261.79 148.88 260.53C147.42 258.87 146.67 256.66 146.95 254.91L149.02 242.17L140.18 227.12C138.86 224.87 138.75 222.45 139.91 221.12C140.71 220.2 141.96 219.97 143.29 220.51L154.86 225.25L159.95 216.28C160.5 215.3 161.48 214.8 162.58 214.91C164.53 215.09 166.58 217.06 167.44 219.59L172.92 235.57L185.14 244.68C187.05 246.1 188.32 248.72 188.17 250.89C188.09 252.09 187.55 253.02 186.67 253.5L178.32 258.08L180.35 272.91C180.6 274.74 179.99 276.18 178.71 276.75C178.35 276.91 177.96 276.99 177.57 276.99C176.37 276.98 175.07 276.26 173.95 274.94Z" stroke="#15100C" stroke-width="2" stroke-miterlimit="10"></path>
    <path d="M255.82 329.25L273.72 318.68C273.88 318.59 274.03 318.49 274.19 318.4L274.47 318.27C280.8 314.89 289.38 315.5 298.85 320.97C318.29 332.19 334.04 359.48 334.04 381.92C334.04 392.32 330.62 399.81 325.06 403.79L324.43 404.22C324.02 404.49 323.6 404.74 323.16 404.97L306.49 414.87L297.04 399.1C281.01 388.06 268.17 366.43 265.73 346.84L264.49 344.77L255.82 329.25Z" fill="#15100C"></path>
    <path d="M299.26 320.66C316.98 330.89 331.59 354.46 334.05 375.55C333.9 385.58 330.53 392.83 325.1 396.71L324.47 397.14C324.06 397.41 323.64 397.66 323.2 397.89L306.53 407.79L297.08 392.02C281.05 380.98 268.21 359.35 265.77 339.76L264.53 337.69L258.79 327.42L274.12 318.36C274.28 318.27 274.43 318.17 274.59 318.08L274.87 317.95C281.2 314.58 289.78 315.19 299.26 320.66Z" fill="white"></path>
    <path d="M296.34 399.77C280.29 388.62 267.36 367.05 264.82 347.16L254.54 328.9L273.29 317.82L274.02 317.42C280.92 313.74 289.91 314.7 299.32 320.14C318.99 331.49 334.98 359.21 334.98 381.91C334.98 392.19 331.65 400.23 325.59 404.56L324.94 405.01C324.5 405.29 324.06 405.56 323.64 405.78L306.16 416.17L296.34 399.77Z" stroke="#15100C" stroke-width="2" stroke-miterlimit="10"></path>
    <path d="M305.345 415.564C319.086 407.631 319.084 381.902 305.341 358.098C291.597 334.295 269.316 321.429 255.575 329.363C241.834 337.296 241.837 363.025 255.58 386.828C269.324 410.632 291.604 423.498 305.345 415.564Z" fill="white"></path>
    <path d="M280 413.93C260.33 402.58 244.33 374.86 244.33 352.16C244.33 340.95 248.16 332.57 255.11 328.56C262.07 324.55 271.24 325.42 280.94 331.03C300.61 342.38 316.61 370.1 316.61 392.8C316.61 404.01 312.78 412.39 305.83 416.4C302.96 418.06 299.7 418.88 296.19 418.88C291.2 418.88 285.69 417.22 280 413.93Z" stroke="#15100C" stroke-width="2" stroke-miterlimit="10"></path>
    <path d="M299.33 320.15C289.91 314.71 280.93 313.75 274.03 317.43L273.3 317.83L255.36 328.43L254.55 328.91V328.92C247.96 333.06 244.33 341.27 244.33 352.17C244.33 374.88 260.33 402.59 280 413.94C285.69 417.23 291.21 418.89 296.19 418.89C299.7 418.89 302.96 418.07 305.83 416.41C305.97 416.33 306.1 416.24 306.24 416.15L323.65 405.8C324.07 405.58 324.51 405.31 324.95 405.03L325.6 404.58C331.66 400.26 334.99 392.22 334.99 381.94C334.99 359.21 318.99 331.5 299.33 320.15Z" stroke="#15100C" stroke-width="4" stroke-miterlimit="10"></path>
    <path d="M291.54 387.75L270.31 375.49C266.54 373.32 264.43 377.11 266.76 381.87C273.97 396.65 287.89 404.69 295.1 398.23C297.42 396.15 295.31 389.92 291.54 387.75Z" fill="#2961D5"></path>
    <path d="M286.43 401.17C278.83 399.68 270.78 392.27 265.91 382.28C264.43 379.26 264.51 376.23 266.09 374.75C267.27 373.65 268.99 373.62 270.79 374.66L292.02 386.92C294.91 388.59 296.7 392.15 296.98 394.82C297.16 396.59 296.72 398.05 295.74 398.93C293.9 400.58 291.6 401.42 289.01 401.42C288.17 401.43 287.31 401.35 286.43 401.17Z" stroke="#15100C" stroke-width="2" stroke-miterlimit="10"></path>
    <path d="M289.87 360.78L292.73 365.96L295.7 364.02C296.53 363.48 297.91 364.23 298.79 365.69C299.67 367.15 299.72 368.78 298.89 369.32L295.73 371.39L298.89 377.11C299.72 378.61 299.67 380.18 298.79 380.63C297.91 381.08 296.52 380.22 295.7 378.73L292.73 373.36L289.87 375.23C289.04 375.77 287.66 375.02 286.78 373.56C285.9 372.1 285.85 370.47 286.68 369.93L289.73 367.93L286.68 362.41C285.85 360.91 285.9 359.34 286.78 358.89C287.66 358.43 289.05 359.28 289.87 360.78Z" fill="#2961D5"></path>
    <path d="M294.88 379.17L292.4 374.69L290.39 376C289.91 376.32 289.32 376.4 288.7 376.27C287.7 376.04 286.68 375.2 285.97 374.03C284.79 372.07 284.87 369.96 286.16 369.12L288.48 367.61L285.85 362.86C285.19 361.66 284.97 360.36 285.27 359.37C285.46 358.76 285.83 358.3 286.35 358.04C287.73 357.35 289.59 358.33 290.7 360.33L293.07 364.61L295.19 363.23C295.67 362.91 296.26 362.83 296.88 362.96C297.88 363.19 298.9 364.03 299.61 365.2C300.79 367.16 300.71 369.27 299.42 370.11L297 371.69L299.74 376.64C300.4 377.84 300.62 379.14 300.32 380.13C300.13 380.74 299.76 381.2 299.24 381.46C298.94 381.61 298.62 381.68 298.29 381.68C297.08 381.68 295.74 380.74 294.88 379.17Z" stroke="#15100C" stroke-width="2" stroke-miterlimit="10"></path>
    <path d="M263.05 345.11C263.93 344.66 265.32 345.52 266.14 347.01L269 352.19L271.97 350.25C272.8 349.71 274.18 350.46 275.06 351.92C275.94 353.38 275.99 355.01 275.16 355.55L272 357.62L275.16 363.34C275.99 364.84 275.94 366.41 275.06 366.86C274.18 367.31 272.79 366.45 271.97 364.96L269 359.59L266.14 361.46C265.31 362 263.93 361.25 263.05 359.79C262.17 358.33 262.12 356.7 262.95 356.16L266 354.16L262.95 348.64C262.13 347.13 262.17 345.56 263.05 345.11Z" fill="#2961D5"></path>
    <path d="M271.15 365.41L268.67 360.93L266.66 362.24C266.17 362.56 265.59 362.65 264.97 362.51C263.97 362.28 262.94 361.44 262.24 360.27C261.06 358.31 261.15 356.2 262.43 355.36L264.75 353.85L262.12 349.1C261.46 347.9 261.24 346.6 261.54 345.61C261.73 345 262.1 344.54 262.61 344.28C263.98 343.59 265.85 344.57 266.96 346.57L269.33 350.85L271.45 349.47C271.93 349.16 272.51 349.06 273.14 349.2C274.14 349.43 275.17 350.27 275.87 351.44C277.05 353.4 276.97 355.51 275.68 356.35L273.26 357.93L276 362.87C276.66 364.07 276.88 365.37 276.57 366.36C276.38 366.97 276.01 367.43 275.49 367.69C275.19 367.84 274.87 367.91 274.54 367.91C273.35 367.91 272.01 366.97 271.15 365.41Z" stroke="#15100C" stroke-width="2" stroke-miterlimit="10"></path>
    <path d="M23.2899 388.56L41.1899 377.99C41.3499 377.9 41.4999 377.8 41.6599 377.71L41.9399 377.58C48.2699 374.2 56.8499 374.81 66.3199 380.28C85.7599 391.5 101.51 418.79 101.51 441.23C101.51 451.63 98.0899 459.12 92.5299 463.1L91.8999 463.53C91.4899 463.8 91.0699 464.05 90.6299 464.28L73.9599 474.18L64.5099 458.41C48.4799 447.37 35.6399 425.74 33.1999 406.15L31.9599 404.08L23.2899 388.56Z" fill="#15100C"></path>
    <path d="M66.73 379.96C84.45 390.19 99.06 413.76 101.52 434.85C101.37 444.88 98 452.13 92.57 456.01L91.94 456.44C91.53 456.71 91.11 456.96 90.67 457.19L74 467.11L64.55 451.34C48.52 440.3 35.68 418.67 33.24 399.08L32 397L26.26 386.73L41.59 377.67C41.75 377.58 41.9 377.48 42.06 377.39L42.34 377.26C48.67 373.88 57.26 374.49 66.73 379.96Z" fill="#2961D5"></path>
    <path d="M63.82 459.08C47.77 447.93 34.84 426.36 32.3 406.47L22.02 388.21L40.77 377.13L41.5 376.73C48.4 373.05 57.39 374.01 66.8 379.45C86.47 390.8 102.46 418.52 102.46 441.22C102.46 451.5 99.13 459.54 93.07 463.87L92.42 464.32C91.98 464.6 91.54 464.87 91.12 465.09L73.64 475.48L63.82 459.08Z" stroke="#15100C" stroke-width="2" stroke-miterlimit="10"></path>
    <path d="M72.8218 474.872C86.5627 466.939 86.5606 441.21 72.817 417.406C59.0734 393.603 36.7928 380.737 23.0518 388.671C9.31087 396.604 9.31302 422.333 23.0566 446.136C36.8002 469.94 59.0809 482.806 72.8218 474.872Z" fill="#2961D5"></path>
    <path d="M47.4699 473.24C27.7999 461.88 11.7999 434.17 11.7999 411.46C11.7999 400.25 15.6299 391.87 22.5799 387.86C29.5399 383.85 38.7099 384.72 48.4099 390.33C68.0799 401.68 84.0799 429.4 84.0799 452.1C84.0799 463.31 80.2499 471.69 73.2999 475.7C70.4299 477.36 67.1699 478.18 63.6599 478.18C58.6699 478.18 53.1599 476.52 47.4699 473.24Z" stroke="#15100C" stroke-width="2" stroke-miterlimit="10"></path>
    <path d="M66.7999 379.45C57.3799 374.01 48.3999 373.05 41.4999 376.73L40.7699 377.13L22.8299 387.73L22.0199 388.21V388.22C15.4299 392.36 11.7999 400.57 11.7999 411.47C11.7999 434.18 27.7999 461.89 47.4699 473.24C53.1599 476.53 58.6799 478.19 63.6599 478.19C67.1699 478.19 70.4299 477.37 73.2999 475.71C73.4399 475.63 73.5699 475.54 73.7099 475.45L91.1199 465.1C91.5399 464.88 91.9799 464.61 92.4199 464.33L93.0699 463.88C99.1299 459.56 102.46 451.52 102.46 441.24C102.46 418.52 86.4699 390.81 66.7999 379.45Z" stroke="#15100C" stroke-width="4" stroke-miterlimit="10"></path>
    <path d="M59.01 447.06L37.78 434.8C34.01 432.63 31.9 436.42 34.23 441.18C41.44 455.96 55.36 464 62.57 457.54C64.89 455.46 62.78 449.23 59.01 447.06Z" fill="white"></path>
    <path d="M53.9 460.48C46.3 458.99 38.25 451.58 33.38 441.59C31.9 438.57 31.98 435.54 33.56 434.06C34.74 432.96 36.46 432.93 38.26 433.97L59.49 446.23C62.38 447.9 64.17 451.46 64.45 454.13C64.63 455.9 64.19 457.36 63.21 458.24C61.37 459.89 59.07 460.73 56.48 460.73C55.64 460.74 54.78 460.65 53.9 460.48Z" stroke="#15100C" stroke-width="2" stroke-miterlimit="10"></path>
    <path d="M57.35 420.09L60.21 425.27L63.18 423.33C64.01 422.79 65.39 423.54 66.27 425C67.15 426.46 67.2 428.09 66.37 428.63L63.21 430.7L66.37 436.42C67.2 437.92 67.15 439.49 66.27 439.94C65.39 440.39 64 439.53 63.18 438.04L60.21 432.67L57.35 434.54C56.52 435.08 55.14 434.33 54.26 432.87C53.38 431.41 53.33 429.78 54.16 429.24L57.21 427.24L54.16 421.72C53.33 420.22 53.38 418.65 54.26 418.2C55.13 417.74 56.52 418.59 57.35 420.09Z" fill="white"></path>
    <path d="M62.35 438.48L59.87 434L57.86 435.31C57.38 435.63 56.79 435.71 56.17 435.58C55.17 435.35 54.15 434.51 53.44 433.34C52.26 431.38 52.34 429.27 53.63 428.43L55.95 426.92L53.32 422.17C52.66 420.97 52.44 419.67 52.74 418.68C52.93 418.07 53.3 417.61 53.82 417.35C55.2 416.66 57.06 417.64 58.17 419.64L60.54 423.92L62.66 422.54C63.14 422.22 63.73 422.14 64.35 422.27C65.35 422.5 66.37 423.34 67.08 424.51C68.26 426.47 68.18 428.58 66.89 429.42L64.46 431L67.2 435.95C67.86 437.15 68.08 438.45 67.78 439.44C67.59 440.05 67.22 440.51 66.7 440.77C66.4 440.92 66.08 440.99 65.75 440.99C64.55 440.99 63.22 440.05 62.35 438.48Z" stroke="#15100C" stroke-width="2" stroke-miterlimit="10"></path>
    <path d="M30.52 404.42C31.4 403.97 32.79 404.83 33.61 406.32L36.47 411.5L39.44 409.56C40.27 409.02 41.65 409.77 42.53 411.23C43.41 412.69 43.46 414.32 42.63 414.86L39.47 416.93L42.63 422.65C43.46 424.15 43.41 425.72 42.53 426.17C41.65 426.62 40.26 425.76 39.44 424.27L36.47 418.9L33.61 420.77C32.78 421.31 31.4 420.56 30.52 419.1C29.64 417.64 29.59 416.01 30.42 415.47L33.47 413.47L30.42 407.95C29.6 406.44 29.64 404.87 30.52 404.42Z" fill="white"></path>
    <path d="M38.62 424.71L36.14 420.23L34.13 421.54C33.64 421.86 33.06 421.95 32.44 421.81C31.44 421.58 30.41 420.74 29.71 419.57C28.53 417.61 28.62 415.5 29.9 414.66L32.22 413.15L29.59 408.4C28.93 407.2 28.71 405.9 29.01 404.91C29.2 404.3 29.57 403.84 30.08 403.58C31.45 402.89 33.32 403.87 34.43 405.87L36.8 410.15L38.92 408.77C39.4 408.46 39.98 408.36 40.61 408.5C41.61 408.73 42.64 409.57 43.34 410.74C44.52 412.7 44.44 414.81 43.15 415.65L40.73 417.23L43.47 422.17C44.13 423.37 44.35 424.67 44.05 425.66C43.86 426.27 43.49 426.73 42.97 426.99C42.67 427.14 42.35 427.21 42.02 427.21C40.82 427.22 39.48 426.28 38.62 424.71Z" stroke="#15100C" stroke-width="2" stroke-miterlimit="10"></path>
    <path d="M71.08 309.19L98.54 292.97C98.78 292.83 99.02 292.68 99.26 292.54L99.7 292.33C109.41 287.15 122.57 288.08 137.11 296.48C166.93 313.7 191.1 355.56 191.1 389.99C191.1 405.95 185.86 417.44 177.32 423.54L176.36 424.21C175.73 424.62 175.09 425.01 174.42 425.36L148.85 440.56L134.36 416.37C109.77 399.43 90.06 366.25 86.32 336.19L84.39 333L71.08 309.19Z" fill="#15100C"></path>
    <path d="M137.71 296C164.89 311.69 187.31 347.86 191.08 380.21C190.84 395.6 185.69 406.73 177.34 412.68L176.38 413.35C175.75 413.76 175.11 414.15 174.44 414.5L148.87 429.7L134.38 405.51C109.79 388.57 90.08 355.39 86.34 325.33L84.43 322.15L75.62 306.39L99.14 292.5C99.38 292.36 99.62 292.21 99.86 292.07L100.3 291.86C110.01 286.68 123.18 287.61 137.71 296Z" fill="#FA005A"></path>
    <path d="M133.24 417.39C108.62 400.29 88.79 367.19 84.89 336.67L69.12 308.66L97.89 291.67L99.01 291.06C109.59 285.41 123.38 286.89 137.83 295.23C168 312.65 192.55 355.17 192.55 390C192.55 405.78 187.44 418.11 178.14 424.74L177.14 425.43C176.47 425.86 175.79 426.28 175.15 426.61L148.33 442.55L133.24 417.39Z" stroke="#15100C" stroke-width="2" stroke-miterlimit="10"></path>
    <path d="M109.08 438.84C78.91 421.42 54.36 378.91 54.36 344.07C54.36 326.88 60.23 314.02 70.9 307.86C81.57 301.7 95.65 303.04 110.53 311.64C140.7 329.06 165.25 371.57 165.25 406.41C165.25 423.6 159.38 436.46 148.71 442.62C144.3 445.16 139.31 446.43 133.92 446.43C126.28 446.43 117.82 443.88 109.08 438.84Z" fill="#FA005A"></path>
    <path d="M109.08 438.84C78.91 421.42 54.36 378.91 54.36 344.07C54.36 326.88 60.23 314.02 70.9 307.86C81.57 301.7 95.65 303.04 110.53 311.64C140.7 329.06 165.25 371.57 165.25 406.41C165.25 423.6 159.38 436.46 148.71 442.62C144.3 445.16 139.31 446.43 133.92 446.43C126.28 446.43 117.82 443.88 109.08 438.84Z" stroke="#15100C" stroke-width="2" stroke-miterlimit="10"></path>
    <path d="M137.82 295.22C123.37 286.88 109.58 285.4 99 291.05L97.88 291.66L69.25 308.9C59.63 315.4 54.36 327.79 54.36 344.07C54.36 378.91 78.91 421.42 109.08 438.84C117.82 443.88 126.27 446.43 133.92 446.43C139.31 446.43 144.3 445.17 148.71 442.62C149.88 441.94 150.99 441.17 152.04 440.34L175.14 426.62C175.78 426.28 176.46 425.87 177.13 425.44L178.13 424.75C187.43 418.12 192.54 405.78 192.54 390.01C192.54 355.16 167.99 312.64 137.82 295.22Z" stroke="#15100C" stroke-width="4" stroke-miterlimit="10"></path>
    <path d="M111.15 416.11C108.5 415.47 105.83 413.1 104.02 409.76L82.3399 369.9C80.4999 366.52 79.2799 363.71 78.4999 361.05C76.2799 353.51 76.4999 346.47 79.0899 341.74C80.8699 338.49 83.6199 336.52 87.0299 336.03C92.0599 335.31 98.0199 337.97 103.37 343.32C106.4 346.36 108.81 350.44 110.14 354.64C110.62 353.92 111.2 353.31 111.86 352.82C113.42 351.65 115.35 351.21 117.49 351.54C126.61 352.95 136.34 363.23 140.62 375.98C143.14 383.5 143.3 390.72 141.04 395.78C140.19 397.7 138.8 399.3 136.81 400.66L115.13 415.49C114.35 416.02 113.46 416.29 112.49 416.29C112.07 416.28 111.61 416.22 111.15 416.11Z" fill="white"></path>
    <path d="M111.15 416.11C108.5 415.47 105.83 413.1 104.02 409.76L82.3399 369.9C80.4999 366.52 79.2799 363.71 78.4999 361.05C76.2799 353.51 76.4999 346.47 79.0899 341.74C80.8699 338.49 83.6199 336.52 87.0299 336.03C92.0599 335.31 98.0199 337.97 103.37 343.32C106.4 346.36 108.81 350.44 110.14 354.64C110.62 353.92 111.2 353.31 111.86 352.82C113.42 351.65 115.35 351.21 117.49 351.54C126.61 352.95 136.34 363.23 140.62 375.98C143.14 383.5 143.3 390.72 141.04 395.78C140.19 397.7 138.8 399.3 136.81 400.66L115.13 415.49C114.35 416.02 113.46 416.29 112.49 416.29C112.07 416.28 111.61 416.22 111.15 416.11Z" stroke="#15100C" stroke-width="2" stroke-miterlimit="10"></path>
    <path d="M172.56 452.39L192.22 440.78C192.39 440.68 192.56 440.57 192.74 440.47L193.05 440.32C200 436.61 209.43 437.28 219.83 443.29C241.18 455.62 258.48 485.59 258.48 510.24C258.48 521.67 254.73 529.89 248.61 534.26L247.92 534.74C247.47 535.03 247.01 535.31 246.53 535.57L228.22 546.45L217.84 529.13C200.23 517 186.13 493.25 183.45 471.72L182.09 469.44L172.56 452.39Z" fill="#15100C"></path>
    <path d="M220.27 442.95C239.73 454.18 255.78 480.08 258.48 503.24C258.31 514.25 254.62 522.22 248.64 526.48L247.95 526.96C247.5 527.25 247.04 527.53 246.56 527.79L228.25 538.67L217.87 521.35C200.26 509.22 186.16 485.47 183.48 463.94L182.12 461.66L175.81 450.38L192.65 440.43C192.82 440.33 192.99 440.22 193.17 440.12L193.48 439.97C200.44 436.27 209.87 436.94 220.27 442.95Z" fill="#FA005A"></path>
    <path d="M217.07 529.85C199.44 517.61 185.24 493.91 182.45 472.06L171.16 452L191.76 439.84L192.56 439.4C200.14 435.35 210.01 436.41 220.35 442.38C241.95 454.85 259.52 485.29 259.52 510.23C259.52 521.52 255.86 530.35 249.2 535.1L248.48 535.6C248 535.91 247.51 536.21 247.05 536.45L227.85 547.86L217.07 529.85Z" stroke="#15100C" stroke-width="2" stroke-miterlimit="10"></path>
    <path d="M226.965 547.004C242.059 538.289 242.057 510.027 226.961 483.88C211.864 457.732 187.389 443.601 172.295 452.316C157.2 461.031 157.202 489.292 172.299 515.44C187.396 541.587 211.87 555.719 226.965 547.004Z" fill="#FA005A"></path>
    <path d="M199.12 545.21C177.52 532.74 159.95 502.3 159.95 477.36C159.95 465.05 164.16 455.84 171.79 451.43C179.43 447.02 189.5 447.98 200.16 454.14C221.76 466.61 239.33 497.05 239.33 521.99C239.33 534.3 235.12 543.51 227.49 547.92C224.33 549.74 220.76 550.65 216.9 550.65C211.42 550.64 205.37 548.82 199.12 545.21Z" stroke="#15100C" stroke-width="2" stroke-miterlimit="10"></path>
    <path d="M222.12 539.89L215.42 536.02C213.82 535.1 212.57 532.75 212.57 530.67V502.5C212.57 501.22 213.05 500.2 213.89 499.72C214.64 499.29 215.57 499.33 216.45 499.84L223.15 503.71C224.75 504.63 226 506.98 226 509.06V537.23C226 538.51 225.52 539.53 224.68 540.01C224.34 540.21 223.96 540.3 223.56 540.3C223.1 540.31 222.6 540.17 222.12 539.89Z" fill="white"></path>
    <path d="M202.97 527.27L196.27 523.4C194.67 522.48 193.42 520.13 193.42 518.05V469.45C193.42 468.17 193.9 467.15 194.74 466.67C195.49 466.24 196.42 466.28 197.3 466.79L204 470.66C205.6 471.58 206.85 473.93 206.85 476.01V524.61C206.85 525.89 206.37 526.91 205.53 527.39C205.19 527.59 204.81 527.68 204.42 527.68C203.94 527.68 203.45 527.54 202.97 527.27Z" fill="white"></path>
    <path d="M183.81 514.64L177.11 510.77C175.51 509.85 174.26 507.5 174.26 505.42V489.77C174.26 488.49 174.74 487.47 175.58 486.99C176.33 486.56 177.26 486.6 178.14 487.11L184.84 490.98C186.44 491.9 187.69 494.25 187.69 496.33V511.98C187.69 513.26 187.21 514.28 186.37 514.76C186.03 514.96 185.65 515.05 185.26 515.05C184.79 515.06 184.29 514.92 183.81 514.64Z" fill="white"></path>
    <path d="M222.12 539.89L215.42 536.02C213.82 535.1 212.57 532.75 212.57 530.67V502.5C212.57 501.22 213.05 500.2 213.89 499.72C214.64 499.29 215.57 499.33 216.45 499.84L223.15 503.71C224.75 504.63 226 506.98 226 509.06V537.23C226 538.51 225.52 539.53 224.68 540.01C224.34 540.21 223.96 540.3 223.56 540.3C223.1 540.31 222.6 540.17 222.12 539.89Z" stroke="#15100C" stroke-width="2" stroke-miterlimit="10"></path>
    <path d="M202.97 527.27L196.27 523.4C194.67 522.48 193.42 520.13 193.42 518.05V469.45C193.42 468.17 193.9 467.15 194.74 466.67C195.49 466.24 196.42 466.28 197.3 466.79L204 470.66C205.6 471.58 206.85 473.93 206.85 476.01V524.61C206.85 525.89 206.37 526.91 205.53 527.39C205.19 527.59 204.81 527.68 204.42 527.68C203.94 527.68 203.45 527.54 202.97 527.27Z" stroke="#15100C" stroke-width="2" stroke-miterlimit="10"></path>
    <path d="M183.81 514.64L177.11 510.77C175.51 509.85 174.26 507.5 174.26 505.42V489.77C174.26 488.49 174.74 487.47 175.58 486.99C176.33 486.56 177.26 486.6 178.14 487.11L184.84 490.98C186.44 491.9 187.69 494.25 187.69 496.33V511.98C187.69 513.26 187.21 514.28 186.37 514.76C186.03 514.96 185.65 515.05 185.26 515.05C184.79 515.06 184.29 514.92 183.81 514.64Z" stroke="#15100C" stroke-width="2" stroke-miterlimit="10"></path>
    <path d="M220.35 442.39C210.01 436.42 200.13 435.36 192.56 439.41L191.76 439.85L173.9 450.4C173.18 450.71 172.47 451.04 171.79 451.44C164.15 455.85 159.95 465.06 159.95 477.37C159.95 502.31 177.52 532.75 199.12 545.22C205.37 548.83 211.43 550.65 216.91 550.65C220.77 550.65 224.34 549.74 227.5 547.92C227.6 547.86 227.69 547.79 227.79 547.73L247.07 536.46C247.53 536.22 248.02 535.92 248.5 535.61L249.22 535.11C255.88 530.36 259.54 521.53 259.54 510.24C259.53 485.3 241.95 454.86 220.35 442.39Z" stroke="#15100C" stroke-width="4" stroke-miterlimit="10"></path>
    <path d="M49.49 178.39L69.15 166.78C69.32 166.68 69.49 166.57 69.67 166.47L69.98 166.32C76.93 162.61 86.36 163.28 96.76 169.29C118.11 181.62 135.41 211.59 135.41 236.24C135.41 247.67 131.66 255.89 125.54 260.26L124.85 260.74C124.4 261.03 123.94 261.31 123.46 261.57L105.15 272.45L94.77 255.13C77.18 243 63.07 219.24 60.39 197.72L59.03 195.44L49.49 178.39Z" fill="#15100C"></path>
    <path d="M97.2 168.95C116.66 180.18 132.71 206.08 135.41 229.24C135.24 240.25 131.55 248.22 125.57 252.48L124.88 252.96C124.43 253.25 123.97 253.53 123.49 253.79L105.18 264.67L94.8 247.35C77.19 235.22 63.09 211.47 60.41 189.94L59.05 187.66L52.74 176.38L69.58 166.43C69.75 166.33 69.92 166.22 70.1 166.12L70.41 165.97C77.37 162.28 86.8 162.95 97.2 168.95Z" fill="#2961D5"></path>
    <path d="M94 255.85C76.37 243.61 62.17 219.91 59.38 198.06L48.09 178L68.69 165.84L69.49 165.4C77.07 161.35 86.94 162.41 97.28 168.38C118.88 180.85 136.45 211.29 136.45 236.23C136.45 247.52 132.79 256.35 126.13 261.1L125.41 261.6C124.93 261.91 124.44 262.21 123.98 262.45L104.78 273.86L94 255.85Z" stroke="#15100C" stroke-width="2" stroke-miterlimit="10"></path>
    <path d="M103.964 273.356C119.058 264.641 119.057 236.379 103.96 210.232C88.8632 184.084 64.3884 169.953 49.294 178.668C34.1995 187.383 34.2013 215.644 49.298 241.792C64.3947 267.939 88.8695 282.071 103.964 273.356Z" fill="#2961D5"></path>
    <path d="M76.1099 271.55C54.5099 259.08 36.9299 228.64 36.9299 203.7C36.9299 191.39 41.1299 182.18 48.7699 177.77C56.4099 173.36 66.4899 174.32 77.1499 180.48C98.7499 192.95 116.32 223.39 116.32 248.33C116.32 260.64 112.12 269.85 104.48 274.26C101.32 276.08 97.7499 276.99 93.8899 276.99C88.4099 276.99 82.3599 275.16 76.1099 271.55Z" stroke="#15100C" stroke-width="2" stroke-miterlimit="10"></path>
    <path d="M97.2799 168.39C86.9399 162.42 77.0599 161.36 69.4899 165.41L68.6899 165.85L48.1699 178.16C40.9199 182.7 36.9299 191.73 36.9299 203.71C36.9299 228.65 54.5099 259.09 76.1099 271.56C82.3599 275.17 88.4199 276.99 93.8999 276.99C97.7599 276.99 101.33 276.09 104.49 274.26C105.29 273.8 106.04 273.27 106.77 272.71L124 262.46C124.46 262.22 124.95 261.92 125.43 261.61L126.15 261.11C132.81 256.36 136.47 247.53 136.47 236.24C136.46 211.31 118.88 180.87 97.2799 168.39Z" stroke="#15100C" stroke-width="4" stroke-miterlimit="10"></path>
    <path d="M65.68 240.43L57.98 235.98C56.56 235.16 55.42 232.97 55.42 231.08V215.04C55.42 213.15 56.57 212.29 57.98 213.1L65.68 217.55C67.1 218.37 68.24 220.56 68.24 222.45V238.49C68.24 240.38 67.1 241.25 65.68 240.43Z" fill="white"></path>
    <path d="M65.16 241.33L57.46 236.88C55.73 235.88 54.38 233.34 54.38 231.08V215.04C54.38 213.67 54.89 212.58 55.78 212.07C56.56 211.62 57.55 211.66 58.5 212.21L66.2 216.66C67.93 217.66 69.28 220.2 69.28 222.46V238.5C69.28 239.87 68.77 240.96 67.88 241.47C67.52 241.68 67.12 241.78 66.71 241.78C66.2 241.77 65.67 241.63 65.16 241.33Z" stroke="#15100C" stroke-width="2" stroke-miterlimit="10"></path>
    <path d="M64.01 218.81V236.01C64.01 237.59 64.81 239.49 66.06 240.86L69.11 244.22C69.61 244.77 70.15 245.22 70.7 245.54L83.28 252.8C88.11 255.59 92.39 254.47 93.88 250.02L97.61 238.9C98.57 236.03 96.36 231.23 93.24 229.43L83.65 223.89C82.67 223.32 81.91 221.89 82.03 220.83L82.39 217.83C82.88 213.71 82.45 208.99 81.14 204.06L81.1 203.92C80.62 202.1 79.34 200.33 77.92 199.51C75.98 198.39 74.44 199.38 74.54 201.68L74.8 207.48C74.84 208.33 74.68 209.07 74.34 209.61L71.72 213.81C70.74 215.39 69.21 216.25 67.33 216.28L65.91 216.3C64.74 216.33 64.01 217.3 64.01 218.81Z" fill="white"></path>
    <path d="M82.75 253.71L70.17 246.45C69.53 246.08 68.91 245.57 68.33 244.93L65.28 241.56C63.85 239.98 62.97 237.85 62.97 236.01V218.81C62.97 216.73 64.14 215.3 65.89 215.28L67.31 215.26C68.82 215.24 70.04 214.55 70.83 213.28L73.45 209.08C73.67 208.73 73.78 208.18 73.75 207.55L73.48 201.75C73.41 200.25 73.94 199.04 74.93 198.43C75.9 197.84 77.17 197.92 78.41 198.64C80.08 199.6 81.52 201.58 82.11 203.82C83.45 208.86 83.89 213.75 83.39 217.98L83.04 220.98C82.96 221.63 83.52 222.65 84.15 223.01L93.74 228.55C97.3 230.61 99.7 235.91 98.58 239.25L94.85 250.37C94.1 252.63 92.67 254.21 90.74 254.94C89.97 255.23 89.13 255.38 88.25 255.38C86.54 255.36 84.65 254.8 82.75 253.71Z" stroke="#15100C" stroke-width="2" stroke-miterlimit="10"></path>
    <path d="M82.78 511.37L98.9 501.85C99.04 501.77 99.18 501.68 99.32 501.6L99.58 501.48C105.28 498.44 113.01 498.99 121.54 503.91C139.04 514.02 153.23 538.59 153.23 558.8C153.23 568.17 150.15 574.91 145.14 578.49L144.58 578.88C144.21 579.12 143.83 579.35 143.44 579.56L128.43 588.48L119.92 574.28C105.48 564.34 93.92 544.86 91.72 527.21L90.6 525.34L82.78 511.37Z" fill="#15100C"></path>
    <path d="M121.89 503.63C137.84 512.84 151.01 534.07 153.22 553.06C153.08 562.09 150.05 568.62 145.16 572.12L144.6 572.51C144.23 572.75 143.85 572.98 143.46 573.19L128.45 582.11L119.94 567.91C105.5 557.97 93.94 538.49 91.74 520.84L90.62 518.97L85.45 509.72L99.26 501.56C99.4 501.48 99.54 501.39 99.68 501.31L99.94 501.19C105.63 498.16 113.36 498.71 121.89 503.63Z" fill="#2961D5"></path>
    <path d="M119.27 574.89C104.82 564.85 93.17 545.42 90.88 527.51L81.62 511.07L98.51 501.1L99.17 500.74C105.38 497.42 113.48 498.29 121.96 503.19C139.67 513.42 154.08 538.37 154.08 558.82C154.08 568.08 151.08 575.32 145.62 579.21L145.03 579.62C144.64 579.87 144.24 580.12 143.86 580.31L128.12 589.67L119.27 574.89Z" stroke="#15100C" stroke-width="2" stroke-miterlimit="10"></path>
    <path d="M127.377 588.624C139.755 581.477 139.756 558.306 127.379 536.869C115.002 515.433 94.9348 503.849 82.557 510.995C70.1791 518.142 70.1782 541.313 82.5549 562.749C94.9316 584.186 114.999 595.77 127.377 588.624Z" fill="#2961D5"></path>
    <path d="M104.55 587.15C86.8399 576.92 72.4299 551.97 72.4299 531.52C72.4299 521.43 75.8799 513.88 82.1399 510.26C88.4099 506.65 96.6599 507.43 105.4 512.48C123.11 522.7 137.52 547.66 137.52 568.11C137.52 578.2 134.07 585.75 127.81 589.37C125.22 590.86 122.29 591.61 119.13 591.61C114.64 591.61 109.67 590.11 104.55 587.15Z" stroke="#15100C" stroke-width="2" stroke-miterlimit="10"></path>
    <path d="M96.4999 536.94L81.8899 526.2C82.6699 520.05 86.6899 516.98 92.0599 518.13L96.4999 536.94Z" fill="white"></path>
    <path d="M81.1599 526.52L81.2099 526.12C81.6299 522.76 82.9899 520.19 85.1299 518.67C87.0599 517.3 89.4999 516.88 92.2099 517.46L92.6399 517.55L97.6099 538.62L81.1599 526.52Z" stroke="#15100C" stroke-width="2" stroke-miterlimit="10"></path>
    <path d="M104.81 549.59L99.34 526.38C101.07 526.75 102.9 527.47 104.81 528.57C114.86 534.37 123.01 548.49 123.01 560.1C123.01 571.71 114.86 576.41 104.81 570.61C94.76 564.81 86.61 550.69 86.61 539.09C86.61 538.12 86.69 537.22 86.8 536.35L104.81 549.59Z" fill="white"></path>
    <path d="M104.38 571.34C94.11 565.41 85.75 550.94 85.75 539.08C85.75 538.18 85.81 537.28 85.94 536.23L86.12 534.79L103.43 547.53L98.18 525.27L99.5 525.55C101.36 525.95 103.28 526.72 105.22 527.84C115.49 533.77 123.85 548.24 123.85 560.1C123.85 566.03 121.81 570.48 118.09 572.62C116.55 573.51 114.8 573.95 112.92 573.95C110.29 573.95 107.38 573.07 104.38 571.34Z" stroke="#15100C" stroke-width="2" stroke-miterlimit="10"></path>
    <path d="M121.96 503.17C113.48 498.27 105.38 497.4 99.1699 500.72L98.5099 501.08L85.3499 508.85C84.2299 509.21 83.1499 509.67 82.1299 510.25C75.8699 513.87 72.4199 521.42 72.4199 531.51C72.4199 551.96 86.8299 576.92 104.54 587.14C109.67 590.1 114.63 591.6 119.12 591.6C122.28 591.6 125.21 590.86 127.8 589.36C127.83 589.34 127.87 589.32 127.9 589.3L143.85 580.29C144.23 580.09 144.63 579.85 145.02 579.6L145.61 579.19C151.07 575.3 154.07 568.06 154.07 558.8C154.08 538.36 139.67 513.4 121.96 503.17Z" stroke="#15100C" stroke-width="4" stroke-miterlimit="10"></path>
    <path d="M158.21 149.98L156.69 149.52L156.32 148.75L147.13 125.29L143.16 113.22C142.84 112.99 142.62 112.94 142.56 112.94L120.11 113.61C118.83 113.61 117.53 112.97 116.42 111.7C115 110.08 114.27 107.92 114.55 106.18L118.6 81.24L92.1999 53.47L87.2099 50.12L87.1599 49.11C87.1699 48.51 87.4899 47.97 87.9999 47.66L101.53 39.5L101.77 39.67C102.27 39.6 102.88 39.65 103.57 39.94L126.46 49.32L127.64 37.67L128.38 37.15C141 29.5 141.01 29.5 141.03 29.48L141.26 29.37C141.89 29 142.88 28.96 143.87 29.34C145.51 29.96 147.01 31.66 147.7 33.67L158.93 66.42C159.22 67.27 159.79 68.08 160.41 68.55L185.52 87.26C187.38 88.65 188.62 91.2 188.47 93.34C188.38 94.62 187.8 95.61 186.83 96.14L173.91 103.73L173.02 103.71L168.67 106.1C168.71 106.09 168.64 106.32 168.7 106.81L172.99 138.16C173.28 140.29 172.38 141.36 171.82 141.81L158.21 149.98Z" fill="#15100C"></path>
    <path d="M185.54 87.26L160.43 68.55C159.81 68.08 159.24 67.27 158.95 66.42L147.72 33.67C147.03 31.66 145.53 29.96 143.89 29.34C142.89 28.96 141.9 29.01 141.28 29.38L141.05 29.49C141.03 29.5 141.01 29.51 128.4 37.16L127.66 37.68L126.48 49.33L103.59 39.95C102.89 39.67 102.28 39.61 101.79 39.68L87.9999 47.66C87.4899 47.97 87.1799 48.52 87.1599 49.11L87.2099 50.12L92.1999 53.47L118.6 81.25L114.55 106.19C114.27 107.92 115 110.09 116.42 111.71C117.53 112.98 118.83 113.61 120.11 113.62L142.56 112.95C142.62 112.95 142.84 113 143.16 113.23L147.13 125.3L156.32 148.76L156.69 149.53L158.21 149.99L171.84 141.82C172.4 141.37 173.31 140.3 173.01 138.17L168.72 106.82C168.66 106.34 168.73 106.11 168.69 106.11L173.04 103.73L173.93 103.75L186.85 96.16C187.82 95.63 188.4 94.64 188.49 93.36C188.64 91.2 187.4 88.64 185.54 87.26Z" stroke="#15100C" stroke-width="1.5" stroke-miterlimit="10"></path>
    <path d="M158.86 148.48L171.36 139.74L167.13 106.03L154.86 112.54L154.08 114.86L159.02 146.13L158.86 148.48Z" fill="#15100C"></path>
    <path d="M158.01 141.88L157.64 139.24L171.98 130.64L172.34 133.28L158.01 141.88Z" fill="white"></path>
    <path d="M154.815 59.0499L141.742 66.8833L143.001 68.9849L156.074 61.1515L154.815 59.0499Z" fill="white"></path>
    <path d="M172.47 95.1L147.36 76.39C146.74 75.92 146.17 75.11 145.88 74.26L134.65 41.51C133.8 39.03 131.76 37.11 129.79 36.92C128.58 36.81 127.49 37.37 126.89 38.43L115.61 58.06L90.5099 47.78C89.0899 47.2 87.7199 47.47 86.8399 48.48C85.6399 49.87 85.7099 52.3 87.0299 54.53L105.2 85.47C105.74 86.39 105.85 87.2 105.78 87.63L101.49 114.02C101.21 115.76 101.94 117.92 103.36 119.54C104.47 120.81 105.8 121.44 107.05 121.44L129.5 120.77C129.66 120.77 130.19 120.99 130.75 121.66L153.21 148.26C154.32 149.58 155.65 150.29 156.89 150.29C157.32 150.29 157.74 150.2 158.14 150.03C159.53 149.41 160.2 147.9 159.94 145.99L155.65 114.64L173.79 103.97C174.76 103.44 175.34 102.44 175.43 101.17C175.57 99.04 174.33 96.48 172.47 95.1Z" fill="white"></path>
    <path d="M172.47 95.1L147.36 76.39C146.74 75.92 146.17 75.11 145.88 74.26L134.65 41.51C133.8 39.03 131.76 37.11 129.79 36.92C128.58 36.81 127.49 37.37 126.89 38.43L115.61 58.06L90.5099 47.78C89.0899 47.2 87.7199 47.47 86.8399 48.48C85.6399 49.87 85.7099 52.3 87.0299 54.53L105.2 85.47C105.74 86.39 105.85 87.2 105.78 87.63L101.49 114.02C101.21 115.76 101.94 117.92 103.36 119.54C104.47 120.81 105.8 121.44 107.05 121.44L129.5 120.77C129.66 120.77 130.19 120.99 130.75 121.66L153.21 148.26C154.32 149.58 155.65 150.29 156.89 150.29C157.32 150.29 157.74 150.2 158.14 150.03C159.53 149.41 160.2 147.9 159.94 145.99L155.65 114.64L173.79 103.97C174.76 103.44 175.34 102.44 175.43 101.17C175.57 99.04 174.33 96.48 172.47 95.1Z" stroke="#15100C" stroke-width="1.5" stroke-miterlimit="10"></path>
    <path d="M103.57 39.94C102.87 39.66 102.26 39.6 101.77 39.67L88 47.66" stroke="#15100C" stroke-width="1.5" stroke-miterlimit="10"></path>
    <path d="M172.47 95.1L147.36 76.39C146.74 75.92 146.17 75.11 145.88 74.26L134.65 41.51C133.8 39.03 131.76 37.11 129.79 36.92C128.58 36.81 127.49 37.37 126.89 38.43L115.61 58.06L90.5099 47.78C89.0899 47.2 87.7199 47.47 86.8399 48.48C85.6399 49.87 85.7099 52.3 87.0299 54.53L105.2 85.47C105.74 86.39 105.85 87.2 105.78 87.63L101.49 114.02C101.21 115.76 101.94 117.92 103.36 119.54C104.47 120.81 105.8 121.44 107.05 121.44L129.5 120.77C129.66 120.77 130.19 120.99 130.75 121.66L153.21 148.26C154.32 149.58 155.65 150.29 156.89 150.29C157.32 150.29 157.74 150.2 158.14 150.03C159.53 149.41 160.2 147.9 159.94 145.99L155.65 114.64L173.79 103.97C174.76 103.44 175.34 102.44 175.43 101.17C175.57 99.04 174.33 96.48 172.47 95.1Z" stroke="#15100C" stroke-width="1.5" stroke-miterlimit="10"></path>
    <path d="M130.51 87C132.91 88.38 134.82 90.26 136.24 92.64C137.66 95.01 138.37 97.55 138.37 100.26C138.37 103.46 137.52 105.43 135.81 106.17C134.1 106.91 131.66 106.36 128.48 104.52C125.72 102.93 123.49 101.12 121.8 99.11V93.88C122.69 94.94 123.73 95.99 124.92 97.02C126.11 98.05 127.23 98.87 128.3 99.49C131.5 101.34 133.1 100.75 133.1 97.72C133.1 94.83 131.44 92.43 128.13 90.52C127.53 90.17 126.87 89.86 126.14 89.58C125.42 89.3 124.83 89.11 124.38 89L122.29 86.5L123.22 72.44L136.67 80.21V85.34L127.81 80.23L127.35 85.59L127.94 85.8C128.64 86.01 129.5 86.42 130.51 87Z" fill="#15100C"></path>
    <path d="M188.49 93.34C188.56 92.35 188.32 91.27 187.87 90.26C187.77 90.03 187.65 89.8 187.52 89.58C187.41 89.39 187.3 89.2 187.17 89.02C186.71 88.34 186.16 87.73 185.53 87.26L160.42 68.55C160.26 68.43 160.11 68.3 159.97 68.14C159.53 67.67 159.16 67.06 158.94 66.42L156.96 60.66L147.71 33.67C147.49 33.03 147.18 32.43 146.82 31.88C146.47 31.35 146.08 30.87 145.64 30.46L145.63 30.45C145.09 29.95 144.49 29.57 143.88 29.34C143.7 29.27 143.53 29.24 143.36 29.19C142.55 29 141.79 29.07 141.27 29.37L127.58 35.84C126.57 36.59 125.85 37.26 125.5 37.89L120.36 46.84L103.57 39.94C103.22 39.8 102.89 39.71 102.59 39.67C102.44 39.65 102.29 39.64 102.16 39.64C102.02 39.64 101.89 39.65 101.77 39.67L101.04 40.09L88.1499 47.48C87.5999 47.88 87.1599 48.11 86.8399 48.48C85.6399 49.87 85.7099 52.3 87.0299 54.53L105.2 85.47C105.74 86.39 105.85 87.2 105.78 87.63L101.49 114.02C101.21 115.76 101.94 117.92 103.36 119.54C104.47 120.81 105.8 121.44 107.05 121.44L129.5 120.77C129.66 120.77 130.19 120.99 130.75 121.66L153.21 148.26C154.32 149.58 155.65 150.29 156.89 150.29C157.32 150.29 157.74 150.2 158.14 150.03C158.38 149.92 158.59 149.78 158.79 149.62L171.83 141.8C172.18 141.52 172.67 140.99 172.91 140.12C173.06 139.6 173.11 138.95 173 138.15L169.79 114.66L168.99 108.74L187.5 95.65C188.08 95.1 188.43 94.3 188.49 93.34Z" stroke="#15100C" stroke-width="4" stroke-miterlimit="10"></path>
    <path d="M356.71 179.64L354.65 179.02L354.15 177.98L341.67 146.11L336.28 129.72C335.84 129.41 335.54 129.34 335.47 129.34L304.97 130.25C303.23 130.25 301.46 129.38 299.96 127.66C298.04 125.46 297.04 122.52 297.42 120.16L302.92 86.28L267.06 48.55L260.27 44L260.2 42.63C260.22 41.82 260.65 41.08 261.34 40.66L279.72 29.58L280.04 29.8C280.71 29.71 281.54 29.78 282.49 30.17L313.58 42.91L315.19 27.09L316.2 26.38C333.34 15.99 333.36 15.99 333.39 15.97L333.7 15.82C334.55 15.32 335.9 15.26 337.25 15.77C339.47 16.61 341.52 18.92 342.46 21.65L357.71 66.14C358.1 67.29 358.88 68.4 359.73 69.03L393.84 94.44C396.37 96.32 398.05 99.8 397.85 102.7C397.73 104.44 396.94 105.79 395.63 106.51L378.07 116.82L376.86 116.8L370.95 120.04C371.01 120.03 370.9 120.34 370.99 121L376.82 163.59C377.22 166.48 375.99 167.94 375.22 168.55L356.71 179.64Z" fill="#15100C"></path>
    <path d="M393.84 94.44L359.73 69.03C358.88 68.4 358.11 67.29 357.72 66.14L342.47 21.65C341.53 18.92 339.49 16.61 337.26 15.77C335.91 15.26 334.56 15.32 333.71 15.82L333.4 15.97C333.37 15.99 333.35 16 316.21 26.38L315.2 27.09L313.59 42.91L282.5 30.17C281.55 29.78 280.72 29.71 280.05 29.8L261.35 40.66C260.66 41.08 260.23 41.82 260.21 42.63L260.28 44L267.05 48.55L302.91 86.28L297.41 120.16C297.03 122.52 298.02 125.46 299.95 127.65C301.45 129.37 303.22 130.24 304.96 130.24L335.46 129.33C335.53 129.33 335.83 129.4 336.27 129.71L341.66 146.1L354.14 177.97L354.64 179.01L356.7 179.63L375.21 168.53C375.98 167.92 377.2 166.46 376.8 163.57L370.99 121C370.9 120.34 371 120.03 370.95 120.04L376.86 116.8L378.07 116.82L395.63 106.51C396.95 105.79 397.73 104.44 397.85 102.7C398.05 99.8 396.37 96.32 393.84 94.44Z" stroke="#15100C" stroke-width="1.5" stroke-miterlimit="10"></path>
    <path d="M357.6 177.61L374.58 165.73L368.84 119.95L352.16 128.79L351.1 131.94L357.81 174.41L357.6 177.61Z" fill="#15100C"></path>
    <path d="M356.44 168.64L355.95 165.05L375.42 153.37L375.91 156.96L356.44 168.64Z" fill="white"></path>
    <path d="M352.096 56.1215L334.34 66.7613L336.051 69.6178L353.808 58.978L352.096 56.1215Z" fill="white"></path>
    <path d="M376.09 105.09L341.98 79.68C341.13 79.05 340.36 77.94 339.97 76.79L324.72 32.3C323.56 28.94 320.79 26.32 318.12 26.07C316.48 25.92 314.99 26.68 314.18 28.12L298.86 54.79L264.76 40.82C262.83 40.03 260.97 40.39 259.77 41.77C258.14 43.65 258.24 46.96 260.02 49.99L284.7 92.01C285.43 93.25 285.58 94.37 285.49 94.94L279.67 130.79C279.29 133.15 280.28 136.09 282.21 138.29C283.72 140.01 285.52 140.87 287.22 140.88L317.72 139.98H317.73C317.95 139.98 318.66 140.28 319.43 141.19L349.93 177.32C351.44 179.11 353.24 180.08 354.93 180.08C355.52 180.08 356.09 179.96 356.63 179.72C358.52 178.88 359.43 176.83 359.08 174.23L353.25 131.65L377.89 117.16C379.2 116.44 380 115.08 380.11 113.35C380.3 110.45 378.62 106.97 376.09 105.09Z" fill="white"></path>
    <path d="M376.09 105.09L341.98 79.68C341.13 79.05 340.36 77.94 339.97 76.79L324.72 32.3C323.56 28.94 320.79 26.32 318.12 26.07C316.48 25.92 314.99 26.68 314.18 28.12L298.86 54.79L264.76 40.82C262.83 40.03 260.97 40.39 259.77 41.77C258.14 43.65 258.24 46.96 260.02 49.99L284.7 92.01C285.43 93.25 285.58 94.37 285.49 94.94L279.67 130.79C279.29 133.15 280.28 136.09 282.21 138.29C283.72 140.01 285.52 140.87 287.22 140.88L317.72 139.98H317.73C317.95 139.98 318.66 140.28 319.43 141.19L349.93 177.32C351.44 179.11 353.24 180.08 354.93 180.08C355.52 180.08 356.09 179.96 356.63 179.72C358.52 178.88 359.43 176.83 359.08 174.23L353.25 131.65L377.89 117.16C379.2 116.44 380 115.08 380.11 113.35C380.3 110.45 378.62 106.97 376.09 105.09Z" stroke="#15100C" stroke-width="1.5" stroke-miterlimit="10"></path>
    <path d="M282.5 30.17C281.55 29.78 280.72 29.71 280.05 29.8L261.35 40.66" stroke="#15100C" stroke-width="1.5" stroke-miterlimit="10"></path>
    <path d="M376.09 105.09L341.98 79.68C341.13 79.05 340.36 77.94 339.97 76.79L324.72 32.3C323.56 28.94 320.79 26.32 318.12 26.07C316.48 25.92 314.99 26.68 314.18 28.12L298.86 54.79L264.76 40.82C262.83 40.03 260.97 40.39 259.77 41.77C258.14 43.65 258.24 46.96 260.02 49.99L284.7 92.01C285.43 93.25 285.58 94.37 285.49 94.94L279.67 130.79C279.29 133.15 280.28 136.09 282.21 138.29C283.72 140.01 285.52 140.87 287.22 140.88L317.72 139.98H317.73C317.95 139.98 318.66 140.28 319.43 141.19L349.93 177.32C351.44 179.11 353.24 180.08 354.93 180.08C355.52 180.08 356.09 179.96 356.63 179.72C358.52 178.88 359.43 176.83 359.08 174.23L353.25 131.65L377.89 117.16C379.2 116.44 380 115.08 380.11 113.35C380.3 110.45 378.62 106.97 376.09 105.09Z" stroke="#15100C" stroke-width="1.5" stroke-miterlimit="10"></path>
    <path d="M319.09 94.1001C322.35 95.9801 324.94 98.5301 326.87 101.76C328.8 104.98 329.76 108.43 329.76 112.1C329.76 116.45 328.6 119.12 326.28 120.12C323.96 121.12 320.64 120.38 316.32 117.88C312.57 115.72 309.54 113.27 307.24 110.54V103.43C308.45 104.88 309.87 106.3 311.48 107.7C313.09 109.1 314.62 110.22 316.07 111.05C320.42 113.56 322.59 112.76 322.59 108.64C322.59 104.72 320.34 101.46 315.84 98.8601C315.02 98.3901 314.13 97.9601 313.14 97.5801C312.16 97.2001 311.36 96.9401 310.74 96.8001L307.9 93.4101L309.17 74.3101L327.45 84.8601V91.8301L315.42 84.8801L314.8 92.1601L315.61 92.4401C316.55 92.7501 317.71 93.3001 319.09 94.1001Z" fill="#15100C"></path>
    <path d="M397.85 102.71C397.94 101.36 397.62 99.9 397.01 98.52C396.87 98.2 396.71 97.9 396.54 97.59C396.39 97.33 396.24 97.07 396.07 96.83C395.45 95.91 394.7 95.08 393.84 94.44L359.73 69.03C359.52 68.87 359.31 68.68 359.11 68.47C358.52 67.84 358.01 67 357.71 66.13L355.03 58.3L342.46 21.64C342.16 20.77 341.74 19.96 341.25 19.21C340.78 18.49 340.24 17.83 339.64 17.28L339.63 17.27C338.9 16.6 338.09 16.07 337.25 15.76C337.01 15.67 336.78 15.62 336.54 15.56C335.44 15.3 334.4 15.39 333.7 15.8L315.1 24.59C313.73 25.61 312.76 26.52 312.27 27.37L305.28 39.53L282.48 30.15C282.01 29.96 281.56 29.84 281.15 29.79C280.94 29.76 280.75 29.75 280.56 29.75C280.37 29.75 280.19 29.76 280.03 29.79L279.04 30.36L261.55 40.4C260.81 40.95 260.21 41.26 259.77 41.76C258.14 43.64 258.24 46.95 260.02 49.98L284.7 92C285.43 93.24 285.58 94.36 285.49 94.93L279.67 130.78C279.29 133.14 280.28 136.08 282.21 138.28C283.72 140 285.52 140.86 287.22 140.87L317.72 139.97H317.73C317.95 139.97 318.66 140.27 319.43 141.18L349.93 177.31C351.44 179.1 353.24 180.06 354.93 180.06C355.52 180.06 356.09 179.94 356.63 179.7C356.96 179.55 357.25 179.36 357.51 179.14L375.23 168.52C375.71 168.14 376.37 167.42 376.7 166.24C376.9 165.53 376.98 164.65 376.83 163.56L372.46 131.65L371.38 123.61L396.52 105.82C397.29 105.09 397.76 104.01 397.85 102.71Z" stroke="#15100C" stroke-width="4" stroke-miterlimit="10"></path>
    <path d="M344.26 585.45L343.03 585.08L342.73 584.46L335.29 565.47L332.08 555.7C331.82 555.51 331.64 555.47 331.6 555.47L313.41 556C312.37 556 311.32 555.48 310.42 554.46C309.27 553.15 308.68 551.4 308.91 549.99L312.19 529.8L290.81 507.31L286.77 504.6L286.73 503.78C286.74 503.3 287 502.86 287.41 502.6L298.37 495.99L298.56 496.12C298.96 496.06 299.46 496.11 300.02 496.34L318.55 503.93L319.51 494.5L320.11 494.08C330.33 487.89 330.34 487.88 330.36 487.87L330.55 487.78C331.06 487.48 331.86 487.45 332.67 487.75C334 488.25 335.21 489.63 335.77 491.26L344.86 517.78C345.09 518.47 345.56 519.13 346.06 519.5L366.39 534.65C367.9 535.77 368.9 537.84 368.78 539.58C368.71 540.61 368.24 541.42 367.45 541.85L357 548.01L356.28 548L352.76 549.93C352.79 549.93 352.73 550.11 352.79 550.5L356.26 575.88C356.5 577.6 355.77 578.47 355.31 578.84L344.26 585.45Z" fill="#15100C"></path>
    <path d="M366.39 534.66L346.06 519.51C345.56 519.13 345.09 518.47 344.86 517.79L335.77 491.27C335.21 489.64 333.99 488.27 332.67 487.76C331.86 487.45 331.06 487.49 330.55 487.79L330.36 487.88C330.34 487.89 330.33 487.9 320.11 494.09L319.51 494.51L318.55 503.94L300.02 496.35C299.46 496.12 298.96 496.08 298.56 496.13L287.41 502.6C287 502.85 286.74 503.29 286.73 503.78L286.77 504.59L290.81 507.3L312.19 529.79L308.91 549.98C308.68 551.38 309.28 553.14 310.42 554.45C311.32 555.48 312.37 555.99 313.41 555.99L331.59 555.45C331.63 555.45 331.81 555.49 332.07 555.68L335.28 565.45L342.72 584.44L343.02 585.06L344.25 585.43L355.29 578.81C355.75 578.45 356.48 577.58 356.24 575.85L352.77 550.47C352.72 550.08 352.78 549.89 352.74 549.9L356.26 547.97L356.98 547.98L367.44 541.83C368.22 541.4 368.69 540.6 368.77 539.56C368.91 537.86 367.9 535.79 366.39 534.66Z" stroke="#15100C" stroke-width="1.5" stroke-miterlimit="10"></path>
    <path d="M344.79 584.24L354.92 577.16L351.49 549.87L341.55 555.14L340.92 557.02L344.92 582.33L344.79 584.24Z" fill="#15100C"></path>
    <path d="M344.1 578.89L343.81 576.75L355.41 569.79L355.71 571.93L344.1 578.89Z" fill="white"></path>
    <path d="M341.538 511.802L330.953 518.145L331.976 519.852L342.561 513.509L341.538 511.802Z" fill="white"></path>
    <path d="M355.82 541.01L335.49 525.86C334.99 525.48 334.52 524.82 334.29 524.13L325.2 497.61C324.51 495.61 322.86 494.04 321.27 493.9C320.29 493.81 319.41 494.27 318.92 495.12L309.79 511.02L289.46 502.69C288.31 502.22 287.2 502.44 286.49 503.26C285.52 504.38 285.58 506.35 286.64 508.16L301.35 533.21C301.79 533.95 301.88 534.61 301.82 534.96L298.35 556.33C298.12 557.74 298.71 559.49 299.86 560.8C300.76 561.82 301.83 562.34 302.85 562.34L321.03 561.8C321.16 561.8 321.58 561.98 322.04 562.52L340.22 584.06C341.12 585.13 342.2 585.7 343.2 585.7C343.55 585.7 343.89 585.63 344.21 585.49C345.34 584.99 345.88 583.77 345.67 582.22L342.2 556.84L356.88 548.2C357.66 547.77 358.14 546.96 358.21 545.93C358.33 544.21 357.32 542.13 355.82 541.01Z" fill="white"></path>
    <path d="M355.82 541.01L335.49 525.86C334.99 525.48 334.52 524.82 334.29 524.13L325.2 497.61C324.51 495.61 322.86 494.04 321.27 493.9C320.29 493.81 319.41 494.27 318.92 495.12L309.79 511.02L289.46 502.69C288.31 502.22 287.2 502.44 286.49 503.26C285.52 504.38 285.58 506.35 286.64 508.16L301.35 533.21C301.79 533.95 301.88 534.61 301.82 534.96L298.35 556.33C298.12 557.74 298.71 559.49 299.86 560.8C300.76 561.82 301.83 562.34 302.85 562.34L321.03 561.8C321.16 561.8 321.58 561.98 322.04 562.52L340.22 584.06C341.12 585.13 342.2 585.7 343.2 585.7C343.55 585.7 343.89 585.63 344.21 585.49C345.34 584.99 345.88 583.77 345.67 582.22L342.2 556.84L356.88 548.2C357.66 547.77 358.14 546.96 358.21 545.93C358.33 544.21 357.32 542.13 355.82 541.01Z" stroke="#15100C" stroke-width="1.5" stroke-miterlimit="10"></path>
    <path d="M300.03 496.35C299.47 496.12 298.97 496.08 298.57 496.13L287.42 502.6" stroke="#15100C" stroke-width="1.5" stroke-miterlimit="10"></path>
    <path d="M355.82 541.01L335.49 525.86C334.99 525.48 334.52 524.82 334.29 524.13L325.2 497.61C324.51 495.61 322.86 494.04 321.27 493.9C320.29 493.81 319.41 494.27 318.92 495.12L309.79 511.02L289.46 502.69C288.31 502.22 287.2 502.44 286.49 503.26C285.52 504.38 285.58 506.35 286.64 508.16L301.35 533.21C301.79 533.95 301.88 534.61 301.82 534.96L298.35 556.33C298.12 557.74 298.71 559.49 299.86 560.8C300.76 561.82 301.83 562.34 302.85 562.34L321.03 561.8C321.16 561.8 321.58 561.98 322.04 562.52L340.22 584.06C341.12 585.13 342.2 585.7 343.2 585.7C343.55 585.7 343.89 585.63 344.21 585.49C345.34 584.99 345.88 583.77 345.67 582.22L342.2 556.84L356.88 548.2C357.66 547.77 358.14 546.96 358.21 545.93C358.33 544.21 357.32 542.13 355.82 541.01Z" stroke="#15100C" stroke-width="1.5" stroke-miterlimit="10"></path>
    <path d="M321.84 534.46C323.78 535.58 325.33 537.1 326.48 539.03C327.63 540.95 328.2 543.01 328.2 545.2C328.2 547.79 327.51 549.38 326.13 549.98C324.75 550.58 322.77 550.13 320.2 548.65C317.97 547.36 316.16 545.9 314.79 544.27V540.03C315.51 540.89 316.36 541.74 317.32 542.58C318.28 543.42 319.19 544.08 320.05 544.58C322.64 546.08 323.94 545.6 323.94 543.14C323.94 540.8 322.6 538.86 319.92 537.31C319.43 537.03 318.9 536.78 318.31 536.55C317.72 536.32 317.25 536.17 316.88 536.08L315.19 534.06L315.95 522.68L326.84 528.97V533.13L319.67 528.99L319.3 533.33L319.78 533.5C320.32 533.66 321.02 533.98 321.84 534.46Z" fill="#15100C"></path>
    <path d="M368.79 539.59C368.85 538.79 368.65 537.92 368.29 537.1C368.21 536.91 368.11 536.73 368.01 536.55C367.92 536.39 367.83 536.24 367.73 536.09C367.36 535.54 366.91 535.05 366.4 534.67L346.07 519.52C345.94 519.43 345.82 519.31 345.7 519.19C345.35 518.81 345.04 518.31 344.87 517.8L343.27 513.13L335.78 491.28C335.6 490.76 335.35 490.28 335.06 489.83C334.78 489.4 334.46 489.01 334.1 488.68L334.09 488.67C333.65 488.27 333.17 487.96 332.67 487.77C332.53 487.72 332.39 487.69 332.25 487.65C331.59 487.49 330.97 487.55 330.56 487.8L319.48 493.04C318.66 493.65 318.08 494.19 317.79 494.7L313.62 501.95L300.03 496.36C299.75 496.24 299.48 496.18 299.24 496.14C299.12 496.12 299 496.12 298.89 496.12C298.78 496.12 298.67 496.13 298.57 496.14L297.98 496.48L287.54 502.46C287.1 502.79 286.74 502.97 286.48 503.27C285.51 504.39 285.57 506.36 286.63 508.17L301.34 533.22C301.78 533.96 301.87 534.62 301.81 534.97L298.34 556.34C298.11 557.75 298.7 559.5 299.85 560.81C300.75 561.83 301.82 562.35 302.84 562.35L321.02 561.81C321.15 561.81 321.57 561.99 322.03 562.53L340.21 584.07C341.11 585.14 342.19 585.71 343.19 585.71C343.54 585.71 343.88 585.64 344.2 585.5C344.4 585.41 344.57 585.3 344.73 585.17L355.29 578.84C355.58 578.61 355.97 578.19 356.16 577.48C356.28 577.06 356.33 576.53 356.24 575.88L353.64 556.86L352.99 552.07L367.98 541.47C368.45 541.01 368.73 540.37 368.79 539.59Z" stroke="#15100C" stroke-width="4" stroke-miterlimit="10"></path>
    <path d="M306.12 224.08L325.38 212.71C325.55 212.61 325.72 212.51 325.89 212.41L326.2 212.27C333.01 208.64 342.24 209.29 352.44 215.18C373.35 227.25 390.31 256.62 390.31 280.77C390.31 291.97 386.63 300.02 380.64 304.3L379.97 304.77C379.53 305.06 379.08 305.33 378.61 305.58L360.67 316.24L350.51 299.27C333.26 287.39 319.44 264.12 316.82 243.03L315.48 240.8L306.12 224.08Z" fill="#15100C"></path>
    <path d="M352.86 214.84C371.92 225.85 387.65 251.21 390.29 273.9C390.12 284.69 386.51 292.5 380.65 296.67L379.98 297.14C379.54 297.43 379.09 297.7 378.62 297.95L360.68 308.61L350.52 291.64C333.27 279.76 319.45 256.49 316.83 235.4L315.49 233.17L309.31 222.12L325.81 212.38C325.98 212.28 326.15 212.18 326.32 212.08L326.63 211.94C333.43 208.3 342.67 208.95 352.86 214.84Z" fill="#FA005A"></path>
    <path d="M349.73 299.97C332.46 287.98 318.55 264.76 315.82 243.36L304.76 223.71L324.94 211.79L325.73 211.36C333.15 207.39 342.83 208.43 352.96 214.28C374.12 226.5 391.34 256.32 391.34 280.75C391.34 291.81 387.75 300.47 381.23 305.12L380.53 305.61C380.06 305.91 379.58 306.2 379.13 306.44L360.32 317.62L349.73 299.97Z" stroke="#15100C" stroke-width="2" stroke-miterlimit="10"></path>
    <path d="M359.408 316.782C374.196 308.244 374.197 280.56 359.41 254.948C344.622 229.336 320.646 215.495 305.858 224.034C291.07 232.572 291.069 260.256 305.856 285.868C320.644 311.48 344.62 325.321 359.408 316.782Z" fill="#FA005A"></path>
    <path d="M332.13 315.02C310.97 302.8 293.75 272.98 293.75 248.55C293.75 236.49 297.87 227.47 305.35 223.15C312.84 218.83 322.71 219.77 333.15 225.8C354.31 238.02 371.53 267.84 371.53 292.27C371.53 304.33 367.41 313.35 359.93 317.67C356.84 319.45 353.34 320.34 349.56 320.34C344.19 320.34 338.26 318.55 332.13 315.02Z" stroke="#15100C" stroke-width="2" stroke-miterlimit="10"></path>
    <path d="M352.94 214.29C342.81 208.44 333.14 207.4 325.71 211.37L324.92 211.8L307.42 222.13C306.71 222.43 306.02 222.76 305.35 223.15C297.87 227.47 293.75 236.49 293.75 248.55C293.75 272.99 310.97 302.81 332.13 315.02C338.26 318.56 344.19 320.34 349.55 320.34C353.33 320.34 356.83 319.45 359.92 317.67C360.02 317.61 360.11 317.55 360.21 317.49L379.1 306.45C379.55 306.22 380.03 305.92 380.5 305.62L381.2 305.13C387.72 300.48 391.31 291.83 391.31 280.76C391.31 256.33 374.1 226.51 352.94 214.29Z" stroke="#15100C" stroke-width="4" stroke-miterlimit="10"></path>
    <path d="M332.13 297.79C328.63 295.77 325.88 291.01 325.88 286.97V274.31L314.91 267.98C311.41 265.96 308.66 261.21 308.66 257.16C308.66 255.01 309.44 253.38 310.85 252.56C312.27 251.74 314.07 251.89 315.93 252.96L325.88 258.7V247.21C325.88 245.06 326.66 243.43 328.07 242.61C329.49 241.79 331.29 241.94 333.15 243.01C336.65 245.03 339.4 249.79 339.4 253.83V266.49L350.37 272.82C353.87 274.84 356.62 279.6 356.62 283.64C356.62 285.79 355.84 287.42 354.43 288.24C353.02 289.06 351.22 288.91 349.35 287.84L339.4 282.1V293.59C339.4 295.74 338.62 297.37 337.21 298.19C336.61 298.54 335.93 298.71 335.21 298.71C334.24 298.72 333.2 298.41 332.13 297.79Z" fill="white"></path>
    <path d="M332.13 297.79C328.63 295.77 325.88 291.01 325.88 286.97V274.31L314.91 267.98C311.41 265.96 308.66 261.21 308.66 257.16C308.66 255.01 309.44 253.38 310.85 252.56C312.27 251.74 314.07 251.89 315.93 252.96L325.88 258.7V247.21C325.88 245.06 326.66 243.43 328.07 242.61C329.49 241.79 331.29 241.94 333.15 243.01C336.65 245.03 339.4 249.79 339.4 253.83V266.49L350.37 272.82C353.87 274.84 356.62 279.6 356.62 283.64C356.62 285.79 355.84 287.42 354.43 288.24C353.02 289.06 351.22 288.91 349.35 287.84L339.4 282.1V293.59C339.4 295.74 338.62 297.37 337.21 298.19C336.61 298.54 335.93 298.71 335.21 298.71C334.24 298.72 333.2 298.41 332.13 297.79Z" stroke="#15100C" stroke-width="2" stroke-miterlimit="10"></path>
    <path d="M682.12 740.3L533.86 655.03L350.67 759.83L500.96 848.54L682.12 743.74C683.47 742.99 683.46 741.05 682.12 740.3Z" fill="#2961D5"></path>
    <path d="M350.67 759.83V796.83L500.96 883.09L500.97 846.1L350.67 759.83Z" fill="#2961D5"></path>
    <path d="M683.37 742.52V778.9L500.96 883.09L500.97 846.1L683.37 742.52Z" fill="#15100C"></path>
    <path d="M500.96 848.54L401.85 791.65C400.33 790.78 398.84 789.76 397.27 788.51C384.91 779.74 356.24 756.15 359.07 728.06L359.44 724.33L362.46 726.58C363.28 727.19 382.83 741.36 406.53 727.76L533.84 655.02L681.9 740C683.84 741.11 683.84 743.9 681.9 745.02L500.96 848.54Z" fill="white"></path>
    <path d="M500.96 848.54L401.85 791.65C400.33 790.78 398.84 789.76 397.27 788.51C384.91 779.74 356.24 756.15 359.07 728.06L359.44 724.33L362.46 726.58C363.28 727.19 382.83 741.36 406.53 727.76L533.84 655.02L681.9 740C683.84 741.11 683.84 743.9 681.9 745.02L500.96 848.54Z" stroke="#15100C" stroke-width="2" stroke-miterlimit="10"></path>
    <path d="M584.44 673.51L554.51 690.69C551.66 692.33 548 693.14 544.35 693.14C540.69 693.14 537.04 692.32 534.19 690.69C531.07 688.9 529.36 686.39 529.36 683.63C529.36 680.87 531.08 678.36 534.19 676.58L567.6 657.41C574.97 653.17 586.52 653.18 593.87 657.41C597.78 659.65 599.94 662.77 599.94 666.17C599.94 669.57 597.78 672.69 593.87 674.93L572.54 687.17" stroke="#15100C" stroke-width="4" stroke-miterlimit="10"></path>
    <path d="M490.41 782.43C483.26 782.43 476.92 780.87 474.98 780.34L473.75 780.01L473.67 778.62L473.73 777.35L475.19 776.98C481.08 775.93 485.23 773.75 487.32 770.64C487.24 770.6 487.16 770.55 487.08 770.5C475.57 763.86 468.97 754.91 468.97 745.95C468.97 738.34 473.71 731.41 482.31 726.45C501.16 715.57 533.96 716.81 555.43 729.2C566.94 735.84 573.54 744.79 573.54 753.75C573.54 761.36 568.8 768.29 560.2 773.26C547.02 780.86 526.25 782.8 507.09 778.24C502.21 781.45 496.05 782.43 490.41 782.43Z" fill="#FA005A"></path>
    <path d="M502.26 745.91C500.25 745.91 498.23 745.46 496.66 744.55C494.94 743.55 493.99 742.16 493.99 740.62C493.99 739.08 494.94 737.68 496.66 736.69C499.8 734.88 504.72 734.88 507.85 736.69C509.57 737.69 510.52 739.08 510.52 740.62C510.52 742.16 509.57 743.56 507.85 744.55C506.28 745.45 504.27 745.91 502.26 745.91Z" fill="white"></path>
    <path d="M520.23 755.98C518.22 755.98 516.2 755.53 514.63 754.62C512.91 753.62 511.96 752.23 511.96 750.69C511.96 749.15 512.91 747.75 514.63 746.76C517.77 744.95 522.68 744.95 525.82 746.76C527.54 747.76 528.49 749.15 528.49 750.69C528.49 752.23 527.54 753.63 525.82 754.62C524.26 755.52 522.25 755.98 520.23 755.98Z" fill="white"></path>
    <path d="M538.06 766.13C536.05 766.13 534.03 765.68 532.46 764.77C530.74 763.77 529.78 762.38 529.78 760.84C529.78 759.3 530.73 757.9 532.45 756.91C535.59 755.1 540.51 755.1 543.64 756.91C545.36 757.91 546.32 759.3 546.32 760.84C546.32 762.38 545.37 763.78 543.64 764.77C542.08 765.68 540.07 766.13 538.06 766.13Z" fill="white"></path>
    <path d="M490.41 782.43C483.26 782.43 476.92 780.87 474.98 780.34L473.75 780.01L473.67 778.62L473.73 777.35L475.19 776.98C481.08 775.93 485.23 773.75 487.32 770.64C487.24 770.6 487.16 770.55 487.08 770.5C475.57 763.86 468.97 754.91 468.97 745.95C468.97 738.34 473.71 731.41 482.31 726.45C501.16 715.57 533.96 716.81 555.43 729.2C566.94 735.84 573.54 744.79 573.54 753.75C573.54 761.36 568.8 768.29 560.2 773.26C547.02 780.86 526.25 782.8 507.09 778.24C502.21 781.45 496.05 782.43 490.41 782.43Z" stroke="#15100C" stroke-width="2" stroke-miterlimit="10"></path>
    <path d="M502.26 745.91C500.25 745.91 498.23 745.46 496.66 744.55C494.94 743.55 493.99 742.16 493.99 740.62C493.99 739.08 494.94 737.68 496.66 736.69C499.8 734.88 504.72 734.88 507.85 736.69C509.57 737.69 510.52 739.08 510.52 740.62C510.52 742.16 509.57 743.56 507.85 744.55C506.28 745.45 504.27 745.91 502.26 745.91Z" stroke="#15100C" stroke-width="2" stroke-miterlimit="10"></path>
    <path d="M520.23 755.98C518.22 755.98 516.2 755.53 514.63 754.62C512.91 753.62 511.96 752.23 511.96 750.69C511.96 749.15 512.91 747.75 514.63 746.76C517.77 744.95 522.68 744.95 525.82 746.76C527.54 747.76 528.49 749.15 528.49 750.69C528.49 752.23 527.54 753.63 525.82 754.62C524.26 755.52 522.25 755.98 520.23 755.98Z" stroke="#15100C" stroke-width="2" stroke-miterlimit="10"></path>
    <path d="M538.06 766.13C536.05 766.13 534.03 765.68 532.46 764.77C530.74 763.77 529.78 762.38 529.78 760.84C529.78 759.3 530.73 757.9 532.45 756.91C535.59 755.1 540.51 755.1 543.64 756.91C545.36 757.91 546.32 759.3 546.32 760.84C546.32 762.38 545.37 763.78 543.64 764.77C542.08 765.68 540.07 766.13 538.06 766.13Z" stroke="#15100C" stroke-width="2" stroke-miterlimit="10"></path>
    <path d="M683.37 742.52V778.9L500.96 883.09L350.67 796.83V759.83L363.93 752.24" stroke="#15100C" stroke-width="2" stroke-miterlimit="10"></path>
    <path d="M683.37 742.52C683.37 741.54 682.88 740.57 681.91 740.01L533.85 655.03L406.54 727.77C382.84 741.37 363.29 727.2 362.47 726.59L359.45 724.34L359.08 728.07C358.22 736.65 359.4 745.31 363.05 752.75L361.97 753.37L350.67 759.84V796.84L500.96 883.1L683.37 778.9V742.52Z" stroke="#15100C" stroke-width="4" stroke-miterlimit="10"></path>
    <path d="M350.67 759.83L397.28 788.52" stroke="#15100C" stroke-width="2" stroke-miterlimit="10"></path>
    <path d="M350.67 775.12L502.01 860.05" stroke="#15100C" stroke-width="2" stroke-miterlimit="10"></path>
    <path d="M350.67 786.32L502.01 871.24" stroke="#15100C" stroke-width="2" stroke-miterlimit="10"></path>
  </g>
  <defs>
    <clipPath id="clip0_2_15727">
      <rect width="740.54" height="885.4" fill="white"></rect>
    </clipPath>
  </defs>
</svg>
