<svg width="170" height="170" viewBox="0 0 170 170" fill="none" xmlns="http://www.w3.org/2000/svg">
    <path d="M84.9534 120.729C104.762 120.729 120.821 104.671 120.821 84.8615C120.821 65.0525 104.762 48.9941 84.9534 48.9941C65.1443 48.9941 49.0859 65.0525 49.0859 84.8615C49.0859 104.671 65.1443 120.729 84.9534 120.729Z" fill="#333333"/>
    <path d="M49.1777 35.8674C49.1777 16.0849 65.2626 0 85.0452 0C104.828 0 120.913 16.0849 120.913 35.8674H49.1777Z" fill="#F2AB2C"/>
    <path d="M84.9534 169.907C65.1708 169.907 49.0859 153.823 49.0859 134.04H120.821C120.821 153.823 104.828 169.907 84.9534 169.907Z" fill="#F2AB2C"/>
    <path d="M35.8674 120.821C16.0848 120.821 0 104.736 0 84.9533C0 65.1708 16.0848 49.0859 35.8674 49.0859V120.821Z" fill="#F2AB2C"/>
    <path d="M169.908 84.9533C169.908 104.736 153.824 120.821 134.041 120.821V49.0859C153.916 49.0859 169.908 65.0784 169.908 84.9533Z" fill="#F2AB2C"/>
    <path d="M35.8674 0.0917969C16.0848 0.0917969 0 16.1767 0 35.9592H35.8674V0.0917969Z" fill="#FFE8AC"/>
    <path d="M169.908 35.9592C169.908 16.1767 153.824 0.0917969 134.041 0.0917969V35.9592H169.908Z" fill="#FFE8AC"/>
    <path d="M35.8674 170C16.0848 170 0 153.915 0 134.133H35.8674V170Z" fill="#FFE8AC"/>
    <path d="M169.908 134.133C169.908 153.915 153.824 170 134.041 170V134.133H169.908Z" fill="#FFE8AC"/>
</svg>
