<svg width="186" height="170" viewBox="0 0 186 170" fill="none" xmlns="http://www.w3.org/2000/svg">
    <path d="M183.87 0H1.68688C0.749725 0 0 0.749725 0 1.68688V99.7135C0 100.651 0.749725 101.4 1.68688 101.4H23.7101C24.6472 101.4 25.3969 100.651 25.3969 99.8072C26.2404 63.2581 56.1357 33.8313 92.9659 33.8313C129.796 33.8313 159.691 63.1643 160.535 99.8072C160.535 100.744 161.285 101.4 162.222 101.4H184.245C185.182 101.4 185.932 100.651 185.932 99.7135L185.557 1.68688C185.557 0.749725 184.807 0 183.87 0Z" fill="#333333"/>
    <path d="M92.8736 170C130.294 170 160.63 139.665 160.63 102.244C160.63 64.8229 130.294 34.4873 92.8736 34.4873C55.4528 34.4873 25.1172 64.8229 25.1172 102.244C25.1172 139.665 55.4528 170 92.8736 170Z" fill="#4479F3"/>
    <path d="M25.1172 102.244C25.1172 64.8512 55.4811 34.4873 92.8736 34.4873C130.266 34.4873 160.63 64.8512 160.63 102.244" fill="#D3E1F9"/>
</svg>
