<svg width="188" height="190" viewBox="0 0 188 190" fill="none" xmlns="http://www.w3.org/2000/svg">
    <path d="M94.3013 81.1748V27.0267L47.4297 -0.00012207L0.558044 27.0267V81.1748L47.4297 108.202L94.3013 81.1748Z" fill="#AEF7EC"/>
    <path d="M94.0695 27.2059V81.354L47.1978 108.381V54.3272L94.0695 27.2059Z" fill="#05C1AF"/>
    <path d="M0.558044 27.2059V81.354L47.4297 108.381V54.3272L0.558044 27.2059Z" fill="#5FD9CB"/>
    <path d="M34.061 86.8706C40.6598 83.0607 41.059 71.3985 34.9527 60.8224C28.8464 50.2463 18.5469 44.7612 11.9481 48.5711C5.34939 52.381 4.95013 64.0432 11.0564 74.6193C17.1627 85.1954 27.4622 90.6805 34.061 86.8706Z" fill="#333333"/>
    <path d="M187.582 81.1748V27.0267L140.71 -0.00012207L93.8383 27.0267V81.1748L140.71 108.202L187.582 81.1748Z" fill="#AEF7EC"/>
    <path d="M187.35 27.2059V81.354L140.478 108.381V54.3272L187.35 27.2059Z" fill="#05C1AF"/>
    <path d="M93.8383 27.2059V81.354L140.71 108.381V54.3272L93.8383 27.2059Z" fill="#5FD9CB"/>
    <path d="M127.615 86.8706C134.214 83.0607 134.613 71.3985 128.507 60.8224C122.401 50.2463 112.101 44.7612 105.502 48.5711C98.9037 52.381 98.5044 64.0432 104.611 74.6193C110.717 85.1954 121.017 90.6805 127.615 86.8706Z" fill="#333333"/>
    <path d="M140.86 162.794V108.646L93.9886 81.6189L47.1169 108.646V162.794L93.9886 189.821L140.86 162.794Z" fill="#AEF7EC"/>
    <path d="M140.628 108.825V162.973L93.7567 190V135.946L140.628 108.825Z" fill="#05C1AF"/>
    <path d="M47.1169 108.825V162.973L93.9886 190V135.946L47.1169 108.825Z" fill="#5FD9CB"/>
    <path d="M80.2859 168.139C86.8847 164.329 87.2839 152.667 81.1776 142.091C75.0713 131.515 64.7718 126.03 58.1731 129.84C51.5743 133.649 51.175 145.312 57.2813 155.888C63.3876 166.464 73.6871 171.949 80.2859 168.139Z" fill="#333333"/>
</svg>
