<svg width="165" height="170" viewBox="0 0 165 170" fill="none" xmlns="http://www.w3.org/2000/svg">
    <path d="M12.2094 170H12.023C5.40572 170 0 164.594 0 157.977V12.0229C0 5.40557 5.40572 -0.00012207 12.023 -0.00012207H12.2094C18.8268 -0.00012207 24.2324 5.40557 24.2324 12.0229V157.977C24.2324 164.687 18.8268 170 12.2094 170Z" fill="#F95574"/>
    <path d="M12.2094 24.2323H12.023C5.40572 24.2323 0 18.8266 0 12.2093V12.0229C0 5.40557 5.40572 -0.00012207 12.023 -0.00012207H12.2094C18.8268 -0.00012207 24.2324 5.40557 24.2324 12.0229V12.2093C24.2324 18.9198 18.8268 24.2323 12.2094 24.2323Z" fill="#333333"/>
    <path d="M58.8099 170H58.6235C52.0062 170 46.6005 164.594 46.6005 157.977V12.0229C46.6005 5.40557 52.0062 -0.00012207 58.6235 -0.00012207H58.8099C65.4272 -0.00012207 70.8329 5.40557 70.8329 12.0229V157.977C70.8329 164.687 65.4272 170 58.8099 170Z" fill="#FFCAC0"/>
    <path d="M58.8099 70.8327H58.6235C52.0062 70.8327 46.6005 65.4271 46.6005 58.8097V58.6233C46.6005 52.006 52.0062 46.6003 58.6235 46.6003H58.8099C65.4272 46.6003 70.8329 52.006 70.8329 58.6233V58.8097C70.8329 65.5203 65.4272 70.8327 58.8099 70.8327Z" fill="#F95574"/>
    <path d="M105.411 170H105.225C98.6076 170 93.2019 164.594 93.2019 157.977V12.0229C93.2019 5.40557 98.6076 -0.00012207 105.225 -0.00012207H105.411C112.029 -0.00012207 117.434 5.40557 117.434 12.0229V157.977C117.434 164.687 112.029 170 105.411 170Z" fill="#F95574"/>
    <path d="M105.411 117.434H105.225C98.6076 117.434 93.2019 112.028 93.2019 105.411V105.225C93.2019 98.6075 98.6076 93.2018 105.225 93.2018H105.411C112.029 93.2018 117.434 98.6075 117.434 105.225V105.411C117.434 112.122 112.029 117.434 105.411 117.434Z" fill="#333333"/>
    <path d="M152.012 170H151.825C145.208 170 139.802 164.594 139.802 157.977V12.0229C139.802 5.40557 145.208 -0.00012207 151.825 -0.00012207H152.012C158.629 -0.00012207 164.035 5.40557 164.035 12.0229V157.977C164.035 164.687 158.629 170 152.012 170Z" fill="#FFCAC0"/>
    <path d="M152.012 170H151.825C145.208 170 139.802 164.594 139.802 157.977V157.791C139.802 151.173 145.208 145.768 151.825 145.768H152.012C158.629 145.768 164.035 151.173 164.035 157.791V157.977C164.035 164.688 158.629 170 152.012 170Z" fill="#F95574"/>
</svg>
